<?xml version="1.0" standalone="no"?>
<!DOCTYPE svg PUBLIC "-//W3C//DTD SVG 1.1//EN" "http://www.w3.org/Graphics/SVG/1.1/DTD/svg11.dtd" >
<svg>
<metadata>
Created by FontForge 20090622 at Wed Mar 21 10:45:14 2018
 By deploy user
</metadata>
<defs>
<font id="fontello" horiz-adv-x="1000" >
  <font-face 
    font-family="fontello"
    font-weight="400"
    font-stretch="normal"
    units-per-em="1000"
    panose-1="0 0 0 0 0 0 0 0 0 0"
    ascent="850"
    descent="-150"
    bbox="-1 -150.633 1286 857"
    underline-thickness="0"
    underline-position="10"
    unicode-range="U+000D-U+F0B2"
  />
<missing-glyph 
 />
    <glyph glyph-name=".notdef" 
 />
    <glyph glyph-name="NULL" horiz-adv-x="0" 
 />
    <glyph glyph-name="NULL" horiz-adv-x="0" 
 />
    <glyph glyph-name="nonmarkingreturn" unicode="&#xd;" horiz-adv-x="250" 
 />
    <glyph glyph-name="space" unicode=" " horiz-adv-x="250" 
 />
    <glyph glyph-name="vcard" unicode="&#xe800;" 
d="M900 750q42 0 71 -29t29 -71v-600q0 -20 -8 -37.5t-21.5 -31.5t-31.5 -22t-39 -8h-800q-40 0 -70 30q-30 28 -30 69v600q0 21 8 39t22 31.5t32 21.5t38 8h800zM900 50v600h-800v-600h800zM450 246v-90h-250v90h250zM450 396v-90h-250v90h250zM450 546v-90h-250v90h250z
M796 226l4 -70h-250q0 70 6 70q84 22 84 66q0 15 -27 56q-27 40 -27 88q0 110 90 110t90 -110q0 -48 -28 -88t-28 -56q0 -10 6 -19t15.5 -16.5t20.5 -13t22 -9.5z" />
    <glyph glyph-name="pin" unicode="&#xe801;" horiz-adv-x="642" 
d="M268 618q0 9 -5.5 13.5t-12.5 4.5t-12.5 -4.5t-5.5 -13.5v-250q0 -9 5.5 -13.5t12.5 -4.5t12.5 4.5t5.5 13.5v250zM643 171q0 -14 -11 -24.5t-25 -10.5h-239l-29 -269q-1 -7 -6 -11t-11 -5h-1q-14 0 -17 15l-43 270h-225q-15 0 -25.5 10t-10.5 25q0 68 44 124
q43 55 99 55v286q-29 0 -50 21t-22 50q0 15 6 28t16 22.5t23 15.5t27 6h357q15 0 27.5 -6t22.5 -16t15.5 -23t5.5 -27t-5.5 -27t-15.5 -23t-22.5 -15.5t-27.5 -5.5v-286q56 0 99 -55q44 -56 44 -124z" />
    <glyph glyph-name="reply" unicode="&#xe802;" horiz-adv-x="900" 
d="M900 10q-86 152 -208 197t-330 45v-218l-362 334l362 322v-192q90 0 168 -27t131.5 -70t95.5 -95q31 -39 54.5 -78.5t39.5 -75.5t26.5 -65.5t16.5 -48.5z" />
    <glyph glyph-name="reply_all" unicode="&#xe803;" 
d="M362 556l-212 -188l212 -196v-138l-362 334l362 322v-134zM612 498q103 0 182 -50q77 -49 115 -122q18 -36 33.5 -72.5t26.5 -71t18 -66t9 -56.5l4 -50q-86 154 -168 198q-83 44 -220 44v-218l-362 334l362 322v-192z" />
    <glyph glyph-name="forward" unicode="&#xe804;" horiz-adv-x="900" 
d="M540 252q-211 0 -332 -45q-122 -45 -208 -197q2 10 5 23t8 30q8 31 50 117q40 83 96 148q55 64 156 117t225 53v192l360 -322l-360 -334v218z" />
    <glyph glyph-name="print" unicode="&#xe805;" horiz-adv-x="980" 
d="M66 526q-26 0 -22 22q4 9 12 14q1 0 49 17l46.5 16l46.5 16q46 15 58 15h44v150h380v-150h46q12 0 57 -15l92 -32q48 -17 49 -17q18 -8 12 -26q-4 -10 -20 -10h-850zM926 470q10 0 20 -5.5t17.5 -14t12 -19t4.5 -21.5v-174q0 -11 -4.5 -21.5t-12 -19t-17.5 -14t-20 -5.5
h-100l44 -249h-760l44 249h-98q-10 0 -20 5.5t-18 14t-13 19t-5 21.5v174q0 11 5 21.5t13 19t18 14t20 5.5h870zM210 26h560l-70 324h-420z" />
    <glyph glyph-name="keyboard" unicode="&#xe806;" 
d="M930 650q28 0 49 -21t21 -49v-460q0 -30 -21 -50t-49 -20h-860q-28 0 -49 20t-21 50v460q0 28 21 49t49 21h860zM550 550v-100h100v100h-100zM700 400h-100v-100h100v100zM400 550v-100h100v100h-100zM550 400h-100v-100h100v100zM250 550v-100h100v100h-100zM400 400
h-100v-100h100v100zM100 550v-100h100v100h-100zM250 400h-100v-100h100v100zM200 150v100h-100v-100h100zM750 150v100h-500v-100h500zM900 150v100h-100v-100h100zM750 300h100v100h-100v-100zM900 450v100h-200v-100h200z" />
    <glyph glyph-name="slider_left" unicode="&#xe807;" 
d="M639 539l-275 -189l275 -189v378zM709 28l-468 322l468 322v-644z" />
    <glyph glyph-name="clock_empty" unicode="&#xe808;" horiz-adv-x="920" 
d="M460 810q190 0 325 -135t135 -325t-135 -325q-136 -134 -325 -134t-325 134q-135 135 -135 325t135 325t325 135zM460 -9q151 0 255 105q105 106 105 255t-105 254t-254 105t-255 -105t-106 -254t106 -255q105 -105 254 -105zM496 610v-244l150 -150l-50 -50l-170 170
v274h70z" />
    <glyph glyph-name="hourglass" unicode="&#xe809;" horiz-adv-x="560" 
d="M560 622q0 -44 -48 -96l-48 -51t-49 -48q-49 -46 -49 -77q0 -30 49 -76t97 -97t48 -97v-117q0 -34 -86 -73t-194 -39q-109 0 -194 39q-86 39 -86 73v117q0 46 48 97t97 97t49 76q0 31 -49 77q-25 23 -49 48l-48 51q-48 52 -48 96v118q0 32 87 71t193 39t193 -39t87 -71
v-118zM60 720q-4 -7 4 -14q91 -52 216 -52q131 0 220 50q15 12 -16 30q-48 28 -98 41t-104 13q-120 0 -204 -54zM306 350q0 18 4 33t18 33l20 25q6 7 31 31l29 28q47 45 69 76t23 46l2 50q-101 -54 -222 -54q-122 0 -222 54l4 -50q2 -16 23 -46.5t67 -75.5l45 -43l19 -19
l17 -21q17 -21 11 -20q-6 2 9 -23q15 -24 3 -24q0 -20 -6.5 -36.5t-19.5 -33.5l-12 -15l-15 -16q-15 -16 -16 -15t-18 -16t-17 -16q-90 -90 -90 -122v-66q4 2 20.5 7.5l45.5 15.5q58 19 92 43t34 58q0 30 26 30t26 -30q0 -34 33 -58q32 -23 94 -43q63 -20 67 -23v66
q0 15 -22.5 46t-69.5 76l-43 41l-18 19q-7 7 -11.5 12.5t-6.5 9.5l-12 20q-7 12 -9 23t-2 23z" />
    <glyph glyph-name="login" unicode="&#xe80a;" horiz-adv-x="900" 
d="M800 800q42 0 71 -29t29 -71v-700q0 -20 -8 -37.5t-21.5 -31.5t-31.5 -22t-39 -8h-450q-20 0 -37.5 8t-31 22t-21.5 31.5t-8 37.5v100h98v-100h450v700h-450v-150h-98v150q0 21 8 39t21.5 31.5t31 21.5t37.5 8h450zM450 130v120h-450v150h450v120l200 -194z" />
    <glyph glyph-name="logout" unicode="&#xe80b;" horiz-adv-x="900" 
d="M502 0v100h98v-100q0 -20 -8 -37.5t-21.5 -31.5t-31.5 -22t-39 -8h-400q-40 0 -70 30t-30 69v700q0 21 8 39t22 31.5t32 21.5t38 8h400q42 0 71 -29t29 -71v-150h-98v150h-402v-700h402zM900 326l-198 -196v120h-450v150h450v120z" />
    <glyph glyph-name="picture" unicode="&#xe80c;" horiz-adv-x="1071" 
d="M357 529q0 -23 -8.5 -42.5t-22.5 -34t-34 -23t-42 -8.5q-44 -1 -76 32q-31 32 -31 76t31 76t76 31q45 -2 76 -30.5t31 -76.5zM929 314v-250h-786v107l178 179l90 -89l285 285zM89 707q-16 0 -18 -18v-678q0 -7 6 -12.5t12 -4.5h893q7 0 13 4.5t5 12.5v678q0 18 -18 18
h-893zM1071 11q0 -18 -7 -34t-19 -28.5t-28.5 -19.5t-34.5 -7h-893q-36 0 -63 27q-26 26 -26 62v678q0 37 26 63.5t63 26.5h893q18 0 34.5 -7.5t28.5 -19.5t19 -28.5t7 -34.5v-678z" />
    <glyph glyph-name="brush" unicode="&#xe80d;" horiz-adv-x="962" 
d="M118 170q38 35 84.5 29.5t88.5 -45.5q21 -20 33 -42t14.5 -44.5t-5 -43.5t-25.5 -39q-84 -82 -228 -102q-83 -10 -80 14q0 4 6 10q52 59 64 144q12 88 48 119zM958 816q26 -26 -148 -248l-160 -196t-132 -142q-19 -19 -50 -45t-74 -59q-8 -6 -16 8q-17 33 -48 64
q-32 31 -66 48q-15 6 -8 16q64 84 104 122q60 57 145 129t199 158q227 171 254 145z" />
    <glyph glyph-name="ccw" unicode="&#xe80e;" horiz-adv-x="940" 
d="M532 736q170 0 289 -120q119 -121 119 -290t-119 -290q-119 -119 -289 -119q-143 0 -252 87l70 74q84 -60 182 -60q126 0 216 90t90 218t-90 218t-215 90t-215 -87q-91 -87 -92 -211h142l-184 -204l-184 204h124q1 166 122 283q120 117 286 117z" />
    <glyph glyph-name="cw" unicode="&#xe80f;" horiz-adv-x="940" 
d="M408 760q168 0 287 -116q118 -116 123 -282h122l-184 -206l-184 206h144q-5 125 -94 210q-91 86 -215 86q-125 0 -215 -90t-90 -217t90 -217t216 -90q104 0 182 60l70 -76q-110 -87 -252 -87q-167 0 -288 119q-120 120 -120 290t120 290t288 120z" />
    <glyph glyph-name="refresh" unicode="&#xe810;" horiz-adv-x="820" 
d="M302 256v-291l-276 16l88 85q-114 120 -114 290q1 168 120 288q99 99 240 116l4 -102q-101 -17 -172 -88q-89 -89 -90 -213q-2 -125 84 -217zM518 738l276 -16l-88 -86q116 -122 114 -290t-120 -288q-48 -48 -108 -77.5t-132 -39.5l-2 103q99 17 170 88q88 88 90 213
t-84 217l-114 -116z" />
    <glyph glyph-name="clock" unicode="&#xe811;" horiz-adv-x="813" 
d="M406 757q110 0 205 -56q91 -52 146 -145q56 -95 56 -206q0 -109 -56 -204q-54 -92 -146 -146q-96 -55 -206 -55q-108 0 -204 55q-92 54 -146 146q-55 94 -55 204q0 112 55 206q55 93 146 145q95 56 205 56zM406 34q86 0 160 44q72 42 114 114q43 75 43 160t-43 160
q-42 71 -114 113q-75 43 -160 43t-160 -43q-72 -42 -114 -113q-43 -75 -43 -160t43 -160q42 -72 114 -114q74 -44 160 -44zM399 302q-11 0 -18.5 4t-14.5 11l-143 156q-15 16 -11.5 33t15.5 28.5t29.5 13t31.5 -13.5l130 -142h108q23 0 34 -14t10 -31t-12 -31t-32 -14h-127z
M381 589q0 12 7.5 17.5t16.5 5.5t16.5 -5.5t7.5 -17.5t-7.5 -17.5t-16.5 -5.5t-16.5 6t-7.5 17zM548 524q0 12 7.5 17.5t16 5.5t16 -5.5t7.5 -17.5t-7.5 -17.5t-16 -5.5t-16 6t-7.5 17zM621 353q0 9 7.5 16.5t16.5 7.5t16.5 -7.5t7.5 -16.5q0 -11 -7.5 -17t-16.5 -6
t-16.5 5.5t-7.5 17.5zM555 185q0 12 7.5 17.5t16.5 5.5t16.5 -5.5t7.5 -17.5q0 -11 -7.5 -16.5t-16.5 -5.5t-16.5 5.5t-7.5 16.5zM380 113q0 9 7 16.5t17 7.5t17 -7.5t7 -16.5q0 -11 -7.5 -17t-16.5 -6t-16.5 5.5t-7.5 17.5zM218 178q0 9 7 16.5t16 7.5t16.5 -7.5t7.5 -16.5
q0 -11 -7.5 -17t-16 -6t-16 5.5t-7.5 17.5zM143 353q0 9 7 16.5t16 7.5t16.5 -7.5t7.5 -16.5q0 -11 -7.5 -17t-16 -6t-16 5.5t-7.5 17.5z" />
    <glyph glyph-name="circle_empty" unicode="&#xe812;" horiz-adv-x="857" 
d="M429 654q-62 1 -117.5 -23.5t-97 -66.5t-65.5 -97.5t-24 -116.5t24 -116.5t65.5 -97.5t97 -66.5t117.5 -23.5q86 2 152 41q66 40 110 111q43 69 41 152q-1 81 -41 152q-20 35 -48 63t-62 47.5t-73 30t-79 11.5zM857 350q0 -87 -34 -165t-93 -137t-136.5 -93t-164.5 -33
q-58 1 -111.5 15t-104.5 43q-50 28 -89 67.5t-66 87.5t-42 102t-16 113t13 112.5t45 102.5q61 99 154.5 156.5t216.5 57.5t215 -58q93 -59 156 -156q32 -49 44 -102.5t13 -112.5z" />
    <glyph glyph-name="circle_dot" unicode="&#xe813;" horiz-adv-x="857" 
d="M571 350q0 -58 -41 -101q-41 -42 -101 -42q-61 0 -101 42t-42 101t42 101q43 42 101 42q57 0 101 -42q43 -41 41 -101zM429 654q-62 1 -117.5 -23.5t-97 -66.5t-65.5 -97.5t-24 -116.5t24 -116.5t65.5 -97.5t97 -66.5t117.5 -23.5q86 2 152 41q66 40 110 111
q43 69 41 152q-1 81 -41 152q-20 35 -48 63t-62 47.5t-73 30t-79 11.5zM857 350q0 -87 -34 -165t-93 -137t-136.5 -93t-164.5 -33q-58 1 -111.5 15t-104.5 43q-50 28 -89 67.5t-66 87.5t-42 102t-16 113t13 112.5t45 102.5q61 99 154.5 156.5t216.5 57.5t215 -58
q93 -59 156 -156q32 -49 44 -102.5t13 -112.5z" />
    <glyph glyph-name="circle" unicode="&#xe814;" horiz-adv-x="857" 
d="M857 350q0 -87 -34 -165t-93 -137t-136.5 -93t-164.5 -33q-58 1 -111.5 15t-104.5 43q-50 28 -89 67.5t-66 87.5t-42 102t-16 113t13 112.5t45 102.5q61 99 154.5 156.5t216.5 57.5t215 -58q93 -59 156 -156q32 -49 44 -102.5t13 -112.5z" />
    <glyph glyph-name="checkbox" unicode="&#xe815;" horiz-adv-x="928" 
d="M786 154q0 -67 -47 -114q-46 -46 -114 -46h-464q-68 0 -114 46q-47 47 -47 114v464q0 66 47 113q48 48 114 48h464q34 0 65 -14q9 -4 10 -13t-5 -16l-27 -28q-7 -5 -13 -5l-5 1q-14 3 -25 3h-464q-37 0 -63.5 -26t-26.5 -63v-464q0 -18 7.5 -34.5t19.5 -29t28.5 -19.5
t34.5 -7h464q18 0 34.5 7.5t28.5 19.5t19 28.5t7 34.5v141q0 8 5 13l36 35q6 6 13 6q1 0 7 -2q11 -5 11 -16v-177zM460 150q-14 -14 -31.5 -14t-31.5 14l-240 240q-14 14 -14 31.5t14 31.5l61 62q14 14 32 14t32 -14l147 -147l361 361q13 13 31 13.5t32 -13.5l62 -61
q14 -14 14 -32t-14 -32z" />
    <glyph glyph-name="checkbox_empty" unicode="&#xe816;" horiz-adv-x="929" 
d="M781 215l103 -59q14 -8 17.5 -22t-4.5 -27t-21.5 -16.5t-26.5 3.5l-104 59l31 -89q6 -21 -7 -36q-14 -13 -34 -11q-20 3 -27 24l-57 167l-151 87v-174l116 -132q12 -14 9 -28t-13 -22.5t-24 -9.5t-25 13l-63 70v-118q0 -15 -10.5 -25.5t-25.5 -10.5q-14 0 -24.5 10.5
t-10.5 25.5v118l-63 -70q-12 -14 -26 -13t-24 9.5t-12.5 22.5t9.5 28l116 132v174l-152 -87l-57 -167q-6 -21 -27 -24q-20 -2 -33 11q-15 15 -7 36l31 89l-104 -59q-13 -7 -27 -3.5t-22 16.5t-4 27t17 22l104 59l-93 19q-17 3 -23.5 16t-4 26t13 22t28.5 6l173 -34l151 87
l-151 88l-173 -35h-8q-16 0 -24.5 10t-10 22t5.5 23.5t23 14.5l93 19l-104 60q-13 7 -16.5 21t3.5 27q8 13 22 17t27 -4l104 -59l-31 89q-8 22 7 35q13 15 33 12q21 -3 27 -23l57 -168l152 -87v175l-116 133q-12 13 -9.5 27t12.5 22.5t24 9t26 -12.5l63 -71v119
q0 15 10.5 25.5t24.5 10.5q15 0 25.5 -10.5t10.5 -25.5v-119l63 71q11 13 25 12.5t24 -9t13 -22.5t-9 -27l-116 -133v-175l151 87l57 168q7 20 27 23q19 3 34 -12q13 -13 7 -35l-31 -89l104 59q13 8 26.5 4.5t21.5 -17.5q8 -13 4.5 -27t-17.5 -21l-103 -60l93 -19
q16 -3 23 -14.5t5.5 -23.5t-10.5 -22t-25 -10h-7l-173 35l-151 -88l151 -87l173 34q17 3 28 -6t13.5 -22t-4 -26t-23.5 -16z" />
    <glyph glyph-name="book" unicode="&#xe817;" horiz-adv-x="700" 
d="M682 594q18 -9 18 -28v-562q0 -14 -12 -24.5t-28 -10.5q-46 0 -46 35v522q0 12 -12 18l-404 216q-16 5 -32.5 2t-35.5 -12q-45 -22 -56 -44l408 -228q18 -8 18 -28v-549q0 -22 -18 -28q-5 -4 -16 -4q-15 0 -20 4q-4 3 -54.5 34.5l-147.5 92.5l-150 92t-62 38
q-26 17 -26 34l-6 524q0 27 14 52q28 45 102 77t116 9z" />
    <glyph glyph-name="mail_empty" unicode="&#xe818;" 
d="M929 439q-18 -20 -39 -36l-134 -105l-104 -84q-27 -23 -46 -37q-18 -13 -48 -27t-57 -14h-2q-27 0 -57 13q-33 14 -48 28q-8 8 -20 17l-26 20l-104 84l-134 105q-21 16 -39 36v-428q0 -7 6 -12.5t12 -4.5h822q16 0 18 17v428zM929 611l-2 14l-3 5q-3 5 -5 4t-8 2h-822
q-7 0 -12 -6t-6 -12q0 -94 83 -159l223 -176q2 -2 7.5 -6.5l12.5 -10.5l13.5 -12t11.5 -9q8 -6 18.5 -13t21 -13t20.5 -9.5t17 -2.5h2q24 0 52 21q8 5 14 9.5t11 7.5q9 5 25 21q15 15 20 17l224 176q30 24 56 65t26 73v14zM1000 11q0 -18 -7 -34t-19 -28.5t-28.5 -19.5
t-34.5 -7h-822q-36 0 -63 27q-26 26 -26 62v607q0 37 26 63t63 26h822q37 0 63 -26t26 -63v-607z" />
    <glyph glyph-name="mail" unicode="&#xe819;" 
d="M1000 11q0 -18 -7 -34t-19 -28.5t-28.5 -19.5t-34.5 -7h-822q-36 0 -63 27q-26 26 -26 62v443q26 -28 56 -49l171 -116.5l107 -75.5l28.5 -21l22.5 -16q21 -14 53 -27q33 -13 61 -13h2q29 0 61 13q16 6 28.5 13t24 14.5t23.5 16.5l28 20l117 82l161 110q16 11 30 23
t26 26v-443zM1000 618q-1 -45 -27 -84.5t-68 -68.5l-171 -117.5l-91 -63.5l-53 -39q-9 -7 -21 -13.5t-24 -12t-23.5 -9t-20.5 -3.5h-2q-26 0 -59 20l-30 18q-6 4 -14 10l-15.5 12t-14 10.5l-9.5 6.5l-147 101l-76.5 53.5t-37.5 26.5q-36 25 -65 64q-31 42 -31 77q0 43 23 72
t66 29h822q18 0 34 -7t28.5 -19t19.5 -28.5t7 -34.5z" />
    <glyph glyph-name="phone" unicode="&#xe81a;" horiz-adv-x="800" 
d="M461 290q162 162 118 206l-8 8q-31 31 -41 48q-11 18 -4 54t49 88q20 24 37 39t35 16t30 1t29 -13l24 -18q4 -2 10 -8.5t16 -16.5l21 -22q47 -50 -6 -194q-55 -147 -204 -295q-151 -150 -295 -203q-73 -28 -120.5 -29t-72.5 22l-23 22q-11 9 -17 15.5t-8 8.5l-18 24
q-13 19 -13 31l2 30q2 18 15.5 35t37.5 37q42 34 70 47t54 2t35 -18q5 -4 14.5 -13l24.5 -24q44 -44 208 120z" />
    <glyph glyph-name="book_open" unicode="&#xe81b;" horiz-adv-x="900" 
d="M340 238v-68l-200 80v68zM340 446v-68l-200 80v68zM878 792q22 -12 22 -42v-640q0 -34 -32 -46l-398 -159q-15 -4 -18.5 -3t-11.5 1l-10 2l-398 159q-32 12 -32 46v640q0 30 22 42q22 16 46 6l382 -154l382 154q24 10 46 -6zM400 4v560l-320 128v-560zM820 132v560
l-320 -128v-560zM760 318v-68l-200 -80v68zM760 526v-68l-200 -80v68z" />
    <glyph glyph-name="users_group" unicode="&#xe81c;" horiz-adv-x="1071" 
d="M331 350q-89 -3 -148 -71h-75q-45 0 -76.5 21.5t-31.5 66.5q2 197 69 197q2 1 15.5 -6t34 -16.5t45.5 -17t50 -7.5q19 1 37.5 3.5t37.5 9.5q-3 -21 -3 -37q0 -79 45 -143zM929 -5q2 -66 -40 -105t-109 -39h-488q-69 0 -109 39t-40 105q0 48 7 103.5t28 103.5t58.5 80
t99.5 32q6 0 16.5 -7t26 -16.5t36 -21t45.5 -20.5q27 -10 56.5 -11t58 3.5t53.5 13.5t43 21l41 26q16 10 24 12q52 0 88 -24t58.5 -61.5t32.5 -84.5t12 -92zM357 707q0 -59 -42 -101t-101 -42t-101 42t-42 101t42 101t101 42t101 -42t42 -101zM750 493q1 -88 -63 -152
q-63 -63 -151 -62q-89 2 -152 62q-64 61 -63 152t63 151q61 60 152 63q90 3 151 -63q63 -68 63 -151zM1071 367q0 -43 -31 -65.5t-77 -22.5h-75q-57 68 -147 71q45 64 45 143q0 16 -3 37q36 -13 74 -13q25 0 50.5 7.5t46 16.5t33.5 16t15 7q69 0 69 -197zM1000 707
q0 -59 -42 -101t-101 -42t-101 42t-42 101t42 101t101 42t101 -42t42 -101z" />
    <glyph glyph-name="male" unicode="&#xe81d;" horiz-adv-x="571" 
d="M571 225q0 -22 -15 -38t-38 -16t-38.5 16t-15.5 38v196h-35v-508q0 -25 -19 -44t-44 -18t-43.5 18t-18.5 44v258h-36v-258q0 -25 -19 -44t-44 -18t-43.5 18t-18.5 44v508h-36v-196q0 -22 -15 -38t-38 -16t-38.5 16t-15.5 38v232q0 22 8.5 42t22.5 34t33.5 22.5t42.5 8.5
h357q22 0 42 -8.5t34 -22.5t22.5 -34t8.5 -42v-232zM411 707q2 -26 -8 -48t-29 -40q-37 -35 -88 -37q-51 -1 -89 37t-36 88t36 89t89 36t89 -35.5t36 -89.5z" />
    <glyph glyph-name="female" unicode="&#xe81e;" horiz-adv-x="714" 
d="M714 261q0 -23 -15 -38t-38 -16q-29 0 -45 24l-127 190h-25v-73l138 -230q5 -8 5 -18q0 -14 -10 -25t-26 -11h-107v-151q0 -25 -18 -43.5t-44 -18.5h-89q-26 0 -44.5 18t-18.5 44v151h-107q-15 0 -25 11t-11 25q0 10 5 18l138 230v73h-25l-127 -190q-17 -24 -44 -24
q-23 0 -38 16t-16 38q0 15 9 29l143 215q39 59 98 59h214q61 0 99 -59l142 -215q9 -14 9 -29zM482 707q-1 -26 -9.5 -48t-26.5 -40q-35 -35 -89 -37q-53 -2 -88 37q-36 39 -37 88q-2 50 37 89t88 36q48 -3 89 -36q39 -32 36 -89z" />
    <glyph glyph-name="child" unicode="&#xe81f;" horiz-adv-x="714" 
d="M500 381v-459q0 -25 -18 -44t-44 -18t-44.5 18t-18.5 44v214h-36v-214q0 -25 -18 -44t-44 -18t-44.5 18t-18.5 44v459l-163 163q-16 16 -15.5 38t16.5 38t37.5 15.5t37.5 -15.5l128 -127h205l127 127q16 16 38 16t38 -16t16 -38t-16 -38zM482 636q0 -52 -36 -89
q-36 -38 -89 -36q-27 0 -49.5 9.5t-39 26t-26 39.5t-10.5 50q-1 54 37 88t88 37q49 3 89 -37t36 -88z" />
    <glyph glyph-name="star" unicode="&#xe820;" horiz-adv-x="928" 
d="M929 489q0 -12 -15 -27l-202 -197l48 -278v-12q0 -18 -13 -24.5t-32 3.5l-251 131l-250 -131q-20 -11 -33 -4t-13 25q0 7 1 12l48 278l-203 197q-14 13 -14 27q0 22 31 26l280 40l126 254q11 23 27.5 23t27.5 -23l125 -254l280 -40q32 -5 32 -26z" />
    <glyph glyph-name="globe" unicode="&#xe821;" horiz-adv-x="857" 
d="M429 779q87 1 164.5 -33.5t136 -93.5t93 -137t34.5 -165t-34.5 -165t-93 -137t-136 -93t-164.5 -33q-58 1 -111.5 15t-104.5 43q-50 28 -89 67.5t-66 87.5t-42 102t-16 113t13 112.5t45 102.5q61 99 154.5 155.5t216.5 58.5zM582 488q-2 -1 -6 -5t-7 -6q1 3 3 6q4 6 4 7
q3 4 11.5 7.5t29.5 7.5q20 3 29 -6q-1 1 5 7t8 7l8 3q3 1 5 2l4 2l1 12q-7 -1 -10 4t-3 12q0 -2 -4 -5q1 4 -0.5 4.5t-4.5 0t-5.5 -1t-3.5 -0.5q-9 4 -13 14q-1 8 -4.5 11.5t-7.5 8.5l-2 3q-1 2 -1 4t-3 3l-3 1l-4 -3q-8 -9 -12 -9t-15 -5q8 3 -1 6q-6 2 -9 2q6 2 5 6t-5 8
h3q-2 4 -11 7.5t-11 5.5q-3 1 -8 2.5t-11 2.5t-11 1h-7q-3 -4 -3 -6t2 -8l2 -7q1 -3 -3 -7t-4 -8q1 -3 8 -8t6 -12q-2 -5 -9 -9l-9 -6q-3 -5 -1 -11t6 -9q3 -3 -0.5 -5t-7.5 -4l-1 -1q-7 -3 -12 3t-7 15q-5 14 -9 17q-13 4 -16 -1q-3 7 -23 15q-15 5 -33 2q4 0 0 8.5
t-10 6.5q1 3 2 10t0 7q1 7 7 13l9 12q2 3 1 4q19 -3 28 6l6 9q5 6 6 10q8 5 12 1t12 -4q8 -1 8 6t-4 11q6 0 2 10q-1 3 -5 5q-6 1 -15 -3q-6 -2 2 -4q-2 0 -6 -6l-9 -10q-5 -5 -9 3l-3 7q-2 5 -5 8q-5 0 -9 -9q1 5 -6 9t-14 4q11 8 -4 15q-4 3 -12 3t-11 -2l-3 -7q2 -5 9 -7
t11 -4q8 -6 5 -8q-1 0 -5 -2t-6 -2q-6 0 -3.5 -6.5t-1.5 -11.5q-3 3 -5 10t-4 9q3 -3 -14 -3h-5q-4 0 -15 -2t-13 5q-3 4 0 11q0 3 2 1l-12 10q-23 -7 -52 -23q5 0 14 5l5 3q19 7 24 4l3 2l11 -14q-4 2 -17 1q-11 -3 -12 -7q4 -5 2 -10l-6 6q-7 7 -16 9q-10 0 -13 -1
q-82 -46 -131 -124q4 -4 6.5 -4.5t3.5 -4.5t1 -6t6 1q5 -5 2 -10q1 0 25 -15l11 -12q2 -6 -5 -10l-5 5q-4 4 -5.5 2t-0.5 -5.5t3 -7.5t4 -4q-4 0 -5 -9l-2 -20q-2 -11 0 -13l1 -1q-1 -3 0 -8.5t3 -10.5t5.5 -8.5t6.5 -2.5q-7 -1 11 -24l4 -5l7 -4l9 -6q5 0 8 -11.5t11 -19.5
q-1 -2 0.5 -4.5t4 -6t4.5 -7t2 -6.5q-3 0 -3 -1q2 -4 9 -8t8 -7q2 -3 2 -9t5 -4q2 12 -13 35q-5 8 -7.5 12.5t-4 7.5t-2 5.5t-1.5 6.5h3q1 0 5 -2l5 -4q-2 -4 1 -9.5t7.5 -11t9 -10t6.5 -7.5q4 -4 8 -11t0 -8q8 0 15.5 -9.5t9.5 -21.5t5.5 -18t9.5 -8l9 -5l7 -3l22 -13
q6 -2 9 -2t8 1l8 2q8 1 16 -8t12 -12q19 -11 30 -6l1 -4l4 -9q2 -5 5 -8t3 -5q3 -3 10 -8t10 -8q4 1 4 5q-1 -5 4 -11t10 -6q8 2 8 18q-16 -7 -27 10l-2 3q-2 4 -3 9.5t2 5.5q5 -1 6 3t-1.5 10t-6.5 12.5t-8 10.5q-3 -5 -9 -4t-9 5q0 -1 -1 -3t-1 -4h-8q1 2 0.5 10t2.5 13
l8 15q4 5 2 7l-3 5q-1 3 -9 1q-12 0 -15 -11l-4 -12q2 -4 -11.5 -5t-20.5 3q-9 5 -13 16q-5 12 -5.5 19t1.5 16l2 14q2 5 -3 14l2 2l3 3l5 6q1 1 3 1h3q3 0 2.5 3.5t-3.5 3.5q4 -1 16 1t15 -1q9 -6 12 1l-1 6q-2 5 0 7q3 -15 16 -5q6 -3 13 -4.5t9 -3.5l3 -3q2 -2 8 4
q2 -4 4 -7.5t3 -5.5q6 -23 10 -25t6 -1q5 2 3.5 8.5t-1.5 11.5l-1 5v14q-12 3 -11 11.5t10 15.5q0 -1 13 6l7 4q13 11 8 20q4 0 6 5l-2 2q-2 2 -5 2t-2 2q6 2 1 8q3 2 4 7t4 5q5 -6 11 -1t2 9q2 4 11 6t10 5q6 -1 5 8q-2 3 0 5.5t6 4.5t7.5 3t4.5 1l9 7q2 2 0 2q10 -2 18 6
q5 7 -4 11q2 4 -1 5t-9 4h7q5 0 5 1q9 4 -3 9q-11 2 -24 -7zM491 -1q115 19 195 105q-1 2 -7 2t-7 2l-13 5q1 7 -6 12l-21 15l-4 2l-5 2q-1 1 -5 -1l-2 -1q-2 0 -3 -1l-5 -3v-2q-11 9 -20 13q-7 5 -15 7.5t-13 -12.5l-1 -7q-4 3 0 10t2 10t-7 2t-6 -2l-7 -5q-8 -6 -5 -3
q1 1 -4 -3t-5 -5q-6 -6 -6 -12q-1 2 -7 3t-5 3q1 -5 2 -19t3 -22q4 -16 -7 -26q-14 -13 -16 -23q-2 -13 7 -14q-2 -9 -7.5 -18t0.5 -14z" />
    <glyph glyph-name="mobile" unicode="&#xe822;" horiz-adv-x="428" 
d="M259 64q0 19 -13 32t-32 13t-31 -13t-13 -32t13 -31t31 -13q9 0 17.5 3.5t15 9.5t10 14t2.5 17zM375 546q0 18 -18 18h-286q-7 0 -12 -5t-5 -13v-392q0 -8 5 -13t12 -5h286q7 0 13 5t5 13v392zM268 627q0 9 -9 9h-89q-9 0 -9 -9t9 -9h89q9 0 9 9zM429 64q0 -15 -6 -27.5
t-16 -22t-23 -15t-27 -5.5h-286q-29 0 -50 20.5t-21 49.5v572q0 29 21 50t50 21h286q29 0 50.5 -21t21.5 -50v-572z" />
    <glyph glyph-name="tablet_1" unicode="&#xe823;" horiz-adv-x="642" 
d="M357 64q0 15 -10 25t-26 11t-25 -11t-10 -25t10 -25t25 -10t26 10t10 25zM571 689q0 8 -5 13t-12 5h-465q-16 0 -18 -18v-535q0 -8 6 -13t12 -5h465q7 0 12 5t5 13v535zM643 82q0 -37 -26 -62.5t-63 -25.5h-465q-18 0 -34 7t-28.5 19t-19.5 28t-7 34v607q0 37 26 63.5
t63 26.5h465q36 0 63 -27q26 -26 26 -63v-607z" />
    <glyph glyph-name="laptop" unicode="&#xe824;" horiz-adv-x="1071" 
d="M232 136q-37 0 -63 26t-26 63v393q0 37 26 63t63 26h607q37 0 63.5 -26t26.5 -63v-393q0 -18 -7.5 -34.5t-19.5 -28.5t-28.5 -19t-34.5 -7h-607zM214 225q0 -7 6 -13t12 -5h607q18 0 18 18v393q0 16 -18 18h-607q-7 0 -12 -6t-6 -12v-393zM982 100h89v-54q0 -22 -26 -37
t-63 -15h-893q-36 0 -62.5 15.5t-26.5 36.5v54h982zM580 46q9 0 9 9t-9 9h-89q-9 0 -9 -9t9 -9h89z" />
    <glyph glyph-name="desktop" unicode="&#xe825;" horiz-adv-x="1071" 
d="M1000 761q0 16 -18 18h-893q-7 0 -12 -6t-6 -12v-465q0 -7 6 -12t12 -5h893q7 0 13 5t5 12v465zM1071 154q0 -37 -26 -63.5t-63 -26.5h-303q0 -15 5 -32t11.5 -32t12 -26.5t6.5 -15.5q0 -14 -10 -25t-25 -11h-286q-15 0 -25 11t-11 25q0 6 5.5 17l12.5 25.5t12.5 31
t5.5 32.5h-304q-36 0 -63 27q-26 26 -26 63v607q0 37 26 63t63 26h893q37 0 63 -26t26 -63v-607z" />
    <glyph glyph-name="cog" unicode="&#xe826;" horiz-adv-x="857" 
d="M571 350q0 58 -41 101q-41 42 -101 42q-61 0 -101 -42t-42 -101t42 -101q43 -42 101 -42q57 0 101 42q43 41 41 101zM857 287q0 -7 -4 -13t-11 -7l-104 -16q-11 -30 -21 -51l24.5 -33l34.5 -44q13 -13 1 -26q-15 -21 -55 -61t-53 -38q-4 0 -7 1t-7 3l-77 60
q-26 -14 -51 -21l-8.5 -63.5t-7.5 -39.5q-4 -16 -20 -16h-124q-8 0 -14 5t-6 12l-16 102q-28 9 -50 21l-79 -60q-6 -4 -14 -4t-14 5q-69 63 -92 94q-4 5 -4 12t5 13q4 6 11 15l17 22l30 40q-8 14 -13.5 27.5t-9.5 27.5l-102 15q-7 1 -11 7t-5 13v124q0 7 5 13t10 7l104 16
q4 13 9.5 25.5t12.5 25.5q-11 16 -26 35l-34 42q-11 13 -1 26q8 10 21.5 25t33.5 35q40 40 53 40q7 0 15 -5l77 -60q23 13 50 21q5 38 9.5 64t7.5 40q4 16 20 16h124q7 0 13 -5t7 -12l15 -103l27 -10t24 -10l79 59q12 12 27 0l59 -57.5t33 -37.5q8 -12 0 -25l-29 -37
l-30 -40q16 -31 23 -54l102 -16q7 -1 12 -7t4 -13v-124z" />
    <glyph glyph-name="cogs" unicode="&#xe827;" horiz-adv-x="1071" 
d="M500 350q0 59 -42 101t-101 42t-101 -42t-42 -101t42 -101t101 -42t101 42t42 101zM929 64q0 15 -6 28t-16 23t-23 15.5t-27 5.5q-28 -1 -50 -21t-21 -51q0 -29 21 -49.5t50 -20.5t51 20.5t21 49.5zM929 636q0 15 -6 27.5t-16 22.5t-23 15.5t-27 5.5t-27 -5.5t-23 -15.5
t-16 -23t-6 -28q0 -29 21.5 -50t50.5 -21t51 21t21 51zM714 298q0 -6 -4 -11t-8 -6l-87 -14q-6 -20 -18 -42l22 -29.5l28 -34.5q8 -14 0 -22q-6 -8 -17.5 -20.5t-28.5 -29.5q-35 -33 -42 -33q-9 0 -13 4l-64 50l-21.5 -9.5t-21.5 -7.5q-3 -30 -6 -51.5t-7 -35.5
q-5 -12 -17 -12h-104q-6 0 -11 4t-5 9l-13 85q-20 6 -42 18l-66 -50q-9 -9 -23 0q-80 75 -80 90q0 6 4 10q2 4 8 11.5l15 18.5l15.5 19.5t10.5 14.5q-7 12 -11.5 23.5l-8.5 22.5l-85 13q-13 2 -13 16v104q0 5 4 10t9 6l86 14q7 19 18 42l-22 29.5l-28 34.5q-8 12 0 23
q12 16 46 49t44 33q7 0 12 -4l64 -50q20 11 43 18q3 30 6 51.5t7 34.5q3 13 16 13h104q6 0 11 -4t6 -10l13 -85q10 -3 20.5 -7.5l21.5 -9.5l65 49q11 8 23 0q81 -75 81 -90q0 -5 -4 -10l-24 -30q-8 -11 -14.5 -19t-10.5 -15q13 -25 19 -46l85 -12q12 -4 13 -17v-103z
M1071 25q0 -9 -83 -17q-3 -7 -7 -14t-9 -14q28 -62 28 -77q0 -2 -2 -4q-67 -40 -69 -40q-5 0 -26 27l-29 37q-11 -1 -17 -1t-17 1q-4 -5 -11 -14.5t-18 -22.5q-23 -26 -25 -27q-2 0 -69 40q-3 1 -3 4q0 13 29 77q-5 7 -9 14l-8 14q-83 8 -83 17v78q0 9 83 18q8 17 17 29
q-29 64 -29 77q0 2 3 4l52 30q16 9 17 9q4 0 25 -26q22 -26 29 -38l17 1l17 -1q28 40 51 63l4 1q1 0 69 -39q2 -2 2 -4q0 -15 -28 -77q9 -13 16 -29q83 -9 83 -18v-78zM1071 597q0 -9 -83 -18q-7 -17 -16 -29q28 -62 28 -77q0 -2 -2 -4q-68 -39 -69 -39q-5 0 -26 26
q-22 26 -29 38q-11 -1 -17 -1t-17 1q-4 -6 -11 -15.5t-18 -22.5q-23 -26 -24 -26q-3 0 -70 39q-3 1 -3 4q0 13 29 77q-5 7 -9 14t-8 15q-83 9 -83 18v78q0 9 83 17q8 17 17 29q-29 64 -29 77q0 2 3 4l52 30q16 9 17 9q4 0 25 -26q11 -13 18 -22.5t11 -14.5l17 1l17 -1
q30 41 51 62l4 1q1 0 69 -39q2 -2 2 -4q0 -15 -28 -77q9 -13 16 -29q83 -8 83 -17v-78z" />
    <glyph glyph-name="down" unicode="&#xe828;" horiz-adv-x="642" 
d="M600 439q0 -8 -6 -12l-260 -261q-5 -5 -13 -5t-12 5l-260 261q-13 12 0 25l28 28q12 12 25 0l219 -219l220 219q6 5 13.5 5.5t11.5 -5.5l28 -28q6 -5 6 -13z" />
    <glyph glyph-name="wrench" unicode="&#xe829;" horiz-adv-x="928" 
d="M214 29q0 14 -10 25t-25 10t-25 -10t-11 -25t11 -24.5t25 -10.5t25 10.5t10 24.5zM193 -117q-21 -21 -50.5 -21t-50.5 21l-59 61q-20 21 -21 49.5t21 50.5l380 380q22 -55 64 -97t97 -64zM928 506q0 -23 -13 -59q-27 -75 -92 -122q-64 -46 -144 -46q-52 1 -96 18.5
t-81 54.5q-73 73 -73 177t73 176q74 73 177 74q32 0 67 -10t60 -26q9 -6 9 -15t-9 -16l-163 -94v-125l108 -60l44 27l75 45q34 20 40 20q18 0 18 -19z" />
    <glyph glyph-name="sliders" unicode="&#xe82a;" horiz-adv-x="857" 
d="M196 64v-70h-196v70h196zM393 136q14 0 25 -11t11 -25v-142q0 -14 -11 -25t-25 -11h-143q-14 0 -25 11t-11 25v142q0 15 11 25.5t25 10.5h143zM482 350v-71h-482v71h482zM125 636v-72h-125v72h125zM857 64v-70h-411v70h411zM321 707q15 0 25.5 -10t10.5 -26v-142
q0 -15 -10 -25.5t-26 -10.5h-142q-15 0 -25.5 11t-10.5 25v142q0 15 11 25.5t25 10.5h142zM679 421q14 0 24.5 -10t10.5 -25v-143q0 -15 -10 -25.5t-25 -10.5h-143q-15 0 -25.5 11t-10.5 25v143q0 14 11 24.5t25 10.5h143zM857 350v-71h-125v71h125zM857 636v-72h-482v72
h482z" />
    <glyph glyph-name="lock" unicode="&#xe82b;" horiz-adv-x="642" 
d="M179 421h285v108q0 59 -42 101q-43 42 -101 41q-60 -2 -101 -41q-41 -40 -41 -101v-108zM643 46q0 -22 -16 -37t-38 -15h-535q-23 0 -38.5 15.5t-15.5 36.5v322q0 22 16 37.5t38 15.5h17v108q0 102 74 176t176 74q101 0 177 -74q73 -72 73 -176v-108h18q23 0 38.5 -15
t15.5 -38v-322z" />
    <glyph glyph-name="trophy" unicode="&#xe82c;" horiz-adv-x="900" 
d="M510 68q35 -4 64.5 -12.5t51.5 -19.5t34 -25t12 -30q0 -36 -65 -63t-156 -27t-157 27t-66 63q0 16 12 30t34 25t52 19.5t66 12.5v66q0 49 -33 84q-17 17 -45 39t-68 49l-49.5 33t-37.5 28q-32 25 -75 72q-45 48 -64.5 108.5t-19.5 136.5q0 14 11 24t25 10h172
q48 92 243 92t243 -92h170q14 0 25 -10t11 -24q0 -76 -19.5 -136.5t-64.5 -108.5q-44 -47 -75 -72q-16 -13 -37.5 -28l-49.5 -33q-78 -53 -111 -87q-33 -35 -33 -85v-66zM648 386q79 55 126 114t54 148h-126q-6 -159 -54 -262zM450 750q-62 0 -108 -15t-64 -32t-18 -30
q0 -14 18 -30q18 -17 63.5 -32t108.5 -15q61 0 108 15q46 15 64 32t18 30t-18 30t-63.5 32t-108.5 15zM72 648q7 -89 54 -148q46 -59 126 -114q-48 103 -54 262h-126z" />
    <glyph glyph-name="spin3" unicode="&#xe82d;" 
d="M987 342l4 -1q4 -2 6.5 -6t2.5 -12q-4 -130 -74 -240q-66 -106 -176 -168q-112 -64 -243 -64q-103 0 -195 40q-91 38 -158 108l-64 -60q-10 -6 -19 -0.5t-11 13.5l-58 226q-5 24 7.5 36t29.5 8l248 -50q11 -2 12.5 -12.5t-7.5 -18.5l-59 -57q54 -57 122 -85
q73 -32 152 -32q99 0 185 48q83 47 134 128q54 84 58 181q0 18 19 18h84zM494 850q100 0 194 -40q45 -20 84.5 -46.5t73.5 -61.5l65 60q9 6 18 0.5t11 -13.5l58 -227q6 -24 -7 -36t-30 -8l-247 50q-12 2 -13 12t8 19l58 57q-52 57 -123 87.5t-150 30.5q-100 0 -186 -49
q-83 -47 -134 -128q-54 -84 -58 -181q0 -18 -19 -18h-84l-4 1q-9 5 -9 19q4 129 74 239q34 54 77.5 96t98.5 73q112 64 244 64z" />
    <glyph glyph-name="spin1" unicode="&#xe82e;" 
d="M113 268q9 0 11 -10q18 -66 59 -126h1q52 -73 133 -116q86 -43 178 -43q26 0 53 3l8 2q21 3 42 9q8 2 13 -6l50 -87q3 -4 2 -9t-6 -7l-23 -8l-5 -1l-17 -4q-61 -14 -117 -14q-23 0 -48.5 2.5t-51.5 7.5t-49 12.5t-44 15.5q-116 48 -197 144q-80 98 -105 221q0 12 9 14h3
h101zM823 736q-1 0 5 -2q1 0 2 -1q8 -7 18 -17l23 -24l19.5 -22.5t17.5 -23.5q44 -62 68 -136q24 -75 24 -155q0 -38 -5.5 -73.5t-15.5 -70.5q-3 -10 -6.5 -20.5t-8.5 -23.5q-46 -113 -134 -189q-7 -6 -12.5 -2.5t-5.5 6.5l-50 86q-5 7 2 14l15 15.5t13 15.5q5 5 10.5 13.5
t13.5 19.5q29 45 45.5 98.5t16.5 110.5q0 39 -6 77.5t-24 73.5l-11 22q-14 28 -32 53t-41 48q-7 7 -2 14l50 87q3 6 11 6zM496 850q22 0 42.5 -2t39.5 -5l13 -2q25 -4 65 -17q4 -1 6.5 -5.5t0.5 -9.5l-52 -89q-1 -4 -5 -5.5t-8 -0.5l-5 1l-9 3l-14 3q-32 7 -74 7
q-23 0 -46.5 -2.5t-48.5 -8.5q-19 -5 -34.5 -11t-28.5 -12q-79 -36 -135.5 -102t-78.5 -151q-2 -9 -11 -9h-101q-11 0 -11 12v3q5 26 12.5 49t15.5 43q10 23 21.5 44t24.5 41q70 105 178 164q113 62 243 62z" />
    <glyph glyph-name="spin2" unicode="&#xe82f;" 
d="M45 144q-11 24 -20.5 54t-15.5 59q-14 75 -5.5 150.5t40.5 147.5q2 4 6.5 5.5t8.5 -0.5q2 0 2 -1l80 -59q9 -5 4 -14q-7 -16 -12.5 -36.5t-8.5 -40.5q-8 -51 -2 -102t25 -99q3 -9 -4 -13l-80 -56q-4 -3 -8.5 -2t-7.5 5q-1 0 -1 2h-1zM166 718v1q20 19 46 37
q14 10 27 17.5l24 13.5q68 38 143.5 53.5t153.5 6.5q10 -1 10 -13l-32 -96q-1 -4 -5 -6t-8 -1h-40q-13 0 -23 -1.5l-17 -2.5q-51 -8 -98.5 -29.5t-87.5 -54.5q-7 -5 -14 0l-79 58q-4 2 -4.5 7t2.5 9zM754 783h1q23 -13 50 -32l20 -15t26 -23q57 -51 94.5 -118.5t53.5 -143.5
q2 -5 -1 -8.5t-8 -4.5l-102 1q-9 0 -11 9q-1 9 -9 29l-5 14q-4 11 -8 18.5t-7 12.5q-48 94 -137 150q-7 4 -5 13l31 92q1 4 5.5 6.5t9.5 0.5zM998 248q-6 -30 -15 -57l-11.5 -30t-10.5 -25q-33 -70 -85.5 -126t-119.5 -94q-4 -2 -9 -1t-7 5l-1 2l-30 93q-2 9 6 14
q16 10 32.5 23.5t29.5 26.5q76 74 101 176q3 8 11 8l98 -1q11 0 11 -11v-3zM560 -146q-30 -3 -60 -3q-17 0 -31.5 1t-27.5 3q-78 10 -148 40.5t-128 84.5q-9 7 0 16l82 58q9 5 16 -2q10 -8 18 -13.5l14 -9.5l19.5 -12t14.5 -8q96 -46 200 -40q9 0 12 -8l29 -92q5 -9 -7 -14
q-1 -1 -3 -1z" />
    <glyph glyph-name="spin4" unicode="&#xe830;" horiz-adv-x="1001" 
d="M89 576q26 2 44 -16q14 -14 17.5 -30.5t-5.5 -37.5q-36 -82 -39 -170.5t29 -172.5q34 -87 99 -151q79 -80 186 -111q102 -30 209 -10q109 21 194 90q-97 -80 -222 -106q-123 -24 -240 10q-123 36 -214 127q-72 71 -110 164q-35 90 -36 186.5t34 187.5q2 8 7 14l8 10
q7 9 17 12.5t22 3.5zM498 850q99 0 189 -37q94 -38 166 -109.5t110 -165.5q37 -90 37.5 -186.5t-34.5 -187.5q-2 -6 -7 -13.5t-8 -10.5q-17 -17 -42.5 -16.5t-41.5 16.5q-26 27 -12 68q37 81 40 170t-30 173q-33 86 -99 152q-80 80 -185 111q-102 30 -209 10
q-109 -21 -194 -90q67 57 152 87q82 29 168 29z" />
    <glyph glyph-name="spin5" unicode="&#xe831;" 
d="M538 55q11 0 11 -11v-182q0 -4 -3 -7.5t-8 -3.5h-70q-12 0 -12 11v182q0 11 12 11h70zM325 111l60 -35q9 -6 5 -16l-92 -157q-2 -4 -6.5 -5t-8.5 1l-61 35q-4 2 -5 7t1 9l91 157q3 6 10 6zM686 115q7 0 10 -6l91 -156q2 -4 1 -9t-5 -7l-61 -35q-4 -2 -9 -1t-7 5v1
l-91 156q-5 9 4 16l61 35q1 1 6 1zM218 236q4 1 11 -5l35 -61q4 -10 -5 -16l-157 -91q-4 -2 -9 -1t-7 5l-35 61q-2 4 -1 9t5 7h1l157 91q1 1 5 1zM784 241q5 0 6 -1l158 -92q4 -2 5 -6.5t-1 -8.5l-35 -61q-2 -4 -7 -5t-9 1l-158 91q-4 2 -5 7t1 9h1l34 60q3 6 10 6zM194 394
q11 0 11 -12v-70q0 -4 -3 -7.5t-8 -3.5h-182q-12 0 -12 11v70q0 12 12 12h182zM989 399q11 0 11 -11v-70q0 -12 -11 -12h-183q-11 0 -11 12v70q0 5 3.5 8t7.5 3h183zM94 634q-1 0 5 -2l158 -91q4 -2 5 -7t-1 -9l-35 -60q-2 -5 -7 -6t-9 2l-158 91q-4 2 -5 6.5t1 8.5l35 61
q3 6 11 6zM904 638q7 1 10 -5l35 -61q2 -4 1 -9t-5 -7h-1l-157 -91q-9 -5 -16 4l-35 61q-4 10 5 16l157 91q1 1 6 1zM284 801q7 0 10 -6v-1l91 -157q5 -9 -4 -16l-61 -35q-10 -4 -16 5l-91 157q-2 4 -1 9t5 7l61 35zM712 803q4 0 5 -1l61 -35q9 -5 4 -16l-91 -158
q-2 -4 -7 -5t-9 1v1l-60 34q-5 2 -6 7t2 9l91 158q5 6 10 5zM532 850q12 0 12 -11v-183q0 -11 -12 -11h-70q-4 0 -7.5 3.5t-3.5 7.5v183q0 5 3.5 8t7.5 3h70z" />
    <glyph glyph-name="spin6" unicode="&#xe832;" 
d="M855 9q-70 -69 -164 -103q-91 -33 -189.5 -30t-189.5 40q-93 38 -162 106q-47 47 -79.5 101.5t-50.5 118.5q-17 62 -19 123.5t10 124.5q13 64 38.5 122t72.5 105l4 4l18 18.5t13 11.5q27 17 60 13.5t56 -26.5t27 -54t-10 -58q-8 -14 -16 -22q-70 -74 -95 -170
q-25 -94 -3 -185q22 -93 90 -161q75 -75 179 -93q98 -18 197 15q97 34 166 112q54 61 82 136.5t27 156.5q0 80 -32 158q-40 97 -124 161q-81 62 -182.5 78.5t-203.5 -17.5v1q119 41 236 22q119 -20 209 -89q97 -75 143 -185q17 -42 26.5 -84t10.5 -87q2 -88 -26 -170.5
t-83 -151.5q-17 -23 -36 -42z" />
    <glyph glyph-name="location" unicode="&#xe833;" horiz-adv-x="500" 
d="M250 750q104 0 177 -73t73 -178q0 -104 -62 -242q-31 -69 -62.5 -124.5t-63.5 -98.5l-62 -83l-12 15l-15 20l-23 33l-37 55q-42 64 -76 130q-33 64 -60 147q-27 82 -27 149q0 104 73 177t177 73zM250 362q56 0 96 40t40 96t-40 95q-41 39 -96 39q-56 0 -95 -39t-39 -95
t39 -96t95 -40z" />
    <glyph glyph-name="address" unicode="&#xe834;" 
d="M426 800q20 0 20 -20v-859q0 -20 -20 -20h-46q-20 0 -20 20v439h-176q-16 0 -28 6q-13 3 -26 12l-120 82q-9 7 -9 16t9 16l120 82q7 5 13.5 8t12.5 4q7 4 28 4h176v190q0 20 20 20h46zM990 592q10 -7 10 -16t-10 -16l-118 -82q-23 -12 -26 -12q-14 -6 -28 -6h-302
l-40 230h342q18 0 28 -4t26 -12z" />
    <glyph glyph-name="up" unicode="&#xe835;" horiz-adv-x="642" 
d="M600 189q0 -8 -6 -12l-28 -28q-13 -13 -25 0l-220 219l-219 -219q-6 -6 -13.5 -6t-11.5 6l-28 28q-13 12 0 25l260 260q12 12 25 0l260 -260q6 -5 6 -13z" />
    <glyph glyph-name="right" unicode="&#xe836;" horiz-adv-x="357" 
d="M332 314q0 -7 -5 -12l-261 -261q-5 -5 -12 -5.5t-13 5.5l-28 28q-13 13 0 26l219 219l-219 220q-12 13 0 25l28 28q6 6 13.5 6t11.5 -6l261 -260q5 -5 5 -13z" />
    <glyph glyph-name="left" unicode="&#xe837;" horiz-adv-x="357" 
d="M350 546q0 -8 -6 -12l-219 -220l219 -219q13 -13 0 -26l-28 -28q-5 -5 -12 -5.5t-13 5.5l-260 261q-13 12 0 25l260 260q6 6 13.5 6t11.5 -6l28 -28q6 -5 6 -13z" />
    <glyph glyph-name="music_light" unicode="&#xe838;" 
d="M10 -44q-10 29 -9.5 57.5t14.5 59.5q35 75 131 107q40 14 78 14q70 0 119 -37v537q0 23 15 40.5t36 21.5l531 94h12q25 0 41 -16q22 -16 22 -47v-656q0 -35 -16 -66q-37 -76 -131 -107q-38 -13 -78 -13q-60 0 -107 28t-65 76q-22 59 6 117q36 76 131 108q40 14 78 14
q67 0 119 -38v379l-519 -91h-12v-500q0 -35 -16 -66q-37 -76 -131 -107q-40 -14 -78 -14q-60 0 -106.5 28t-64.5 77zM67 -22q15 -42 66 -58q51 -17 107 3t85 62t13 82q-17 40 -66 57q-49 16 -106 -2q-56 -18 -85 -62t-14 -82zM404 600l531 94v93l-531 -93v-94zM660 71
q15 -42 66 -58q51 -17 107 3t85 62q29 43 13 83q-17 40 -66 57q-50 17 -107 -3t-84 -61q-27 -43 -14 -83z" />
    <glyph glyph-name="search_light" unicode="&#xe839;" 
d="M0 -40q0 46 33 79l260 260q-43 82 -43 176q0 155 109 265q110 111 266 110q157 -2 266 -110q109 -109 109 -266t-109 -265t-266 -109q-94 0 -176 43l-260 -259q-33 -33 -79 -33q-23 0 -43 8.5t-35 23.5t-23.5 34.5t-8.5 42.5zM55 -39q-1 -18 9 -31t24.5 -19t31.5 -3.5
t30 15.5l252 251q-45 33 -78 78l-252 -252q-15 -14 -17 -39zM313 475q0 -130 91 -221q92 -92 221 -91q130 1 221 91t91 221t-91 221t-221 91q-129 1 -221 -91q-91 -91 -91 -221zM406 475q0 89 65 154q63 63 154 65q16 0 16 -16t-16 -16q-78 0 -133 -54t-54 -133
q0 -16 -16 -16t-16 16z" />
    <glyph glyph-name="mail_light" unicode="&#xe83a;" 
d="M0 569q0 50 36 88q36 37 89 37h750q53 0 89 -37q36 -38 36 -88v-406q0 -53 -36 -89t-89 -36h-750q-53 0 -89 36t-36 89v406zM63 163q0 -26 18 -44.5t44 -18.5h750q25 0 44 19t18 44l-244 183l-136 -101q-26 -20 -57 -20t-57 20l-136 101zM63 202l218 164l-218 164v-328z
M307 385l27 -19l129 -98q16 -12 37 -12t37 12l400 301q0 25 -18 43.5t-44 18.5h-750q-25 0 -44 -18t-18 -44zM719 366l218 -164v328z" />
    <glyph glyph-name="heart_light" unicode="&#xe83b;" 
d="M0 476q0 122 88 210q85 85 204 86q120 1 208 -78q88 79 208 78q119 -1 204 -86q88 -88 88 -210t-88 -210l-346 -341q-14 -14 -31 -20.5t-35 -6.5t-35.5 6.5t-30.5 20.5q-4 0 -346 341q-88 88 -88 210zM63 476q0 -95 70 -165l346 -341q22 -21 43 0l345 341q70 70 70 165
q0 98 -70 165q-67 67 -160 68q-97 2 -164 -60l-43 -39l-43 39q-67 62 -164 60q-93 -1 -160 -68q-70 -67 -70 -165zM156 483q0 55 39 94t94 39q16 0 16 -16t-16 -16q-21 0 -39 -8t-32 -21.5t-22 -32t-8 -39.5q0 -16 -16 -16t-16 16z" />
    <glyph glyph-name="dot" unicode="&#xe83c;" horiz-adv-x="220" 
d="M110 460q23 0 43 -8.5t35 -23.5t23.5 -35t8.5 -42q0 -44 -32 -78q-32 -33 -78 -33q-47 0 -78 33q-32 34 -32 78q0 22 8.5 42t23.5 35t35 23.5t43 8.5z" />
    <glyph glyph-name="user_light" unicode="&#xe83d;" horiz-adv-x="1003" 
d="M4 -104q-12 44 25 70q60 38 132 67t159 48q-42 53 -72 116.5t-47 138.5q-6 28 -8 58t-3 64q-1 65 23 149q12 42 28 76.5t38 61.5q81 105 223 105q139 0 222 -105q43 -56 67 -138q24 -81 23 -149t-12 -122q-15 -76 -46 -139t-73 -116q87 -19 159 -48t132 -67
q40 -27 26 -71t-61 -44h-875q-21 0 -38 13t-22 32zM939 -87q-55 37 -121.5 64.5t-145.5 42.5l-79 16q-91 -59 -183 0l-78 -16q-81 -16 -147.5 -43t-120.5 -64h875zM257 514q-6 -51 -1 -103t20 -102.5t39 -98t54 -90.5l10 -14q57 -66 123 -66t123 66l9 14q67 82 96 185.5
t16 208.5q-13 112 -76 193q-62 80 -168 80t-168 -80t-77 -193z" />
    <glyph glyph-name="video_light" unicode="&#xe83e;" 
d="M0 600q0 39 27 66.5t67 27.5h594q19 0 36 -7.5t30 -20.5t20 -30t7 -36v-39l84 84q17 17 45 17h27q26 0 44.5 -18t18.5 -44v-500q0 -27 -19 -44.5t-44 -17.5h-27q-28 0 -45 17l-84 84v-39q0 -39 -27 -66.5t-66 -27.5h-594q-39 0 -67 28q-27 27 -27 66v500zM63 100
q0 -31 31 -31h594q13 0 22 9t9 22v500q0 14 -9 22.5t-22 8.5h-594q-14 0 -22.5 -9t-8.5 -22v-500zM750 256l31 -31l125 -125h31v500h-31l-156 -156v-188z" />
    <glyph glyph-name="camera_light" unicode="&#xe83f;" 
d="M0 475q0 35 23 61t55 31l135 23l43 108q11 28 34.5 43t53.5 15h312q30 0 53.5 -15t34.5 -43l43 -108l135 -23q33 -6 55.5 -31t22.5 -61v-469q0 -19 -7 -36t-20 -29.5t-30 -20t-37 -7.5h-812q-39 0 -67 28q-27 27 -27 65v469zM63 6q0 -12 8 -21t23 -9h812q14 0 22.5 9
t8.5 21v469q0 27 -25 31l-170 28l-56 140q-8 20 -30 20h-312q-22 0 -30 -20l-56 -140l-170 -28q-25 -4 -25 -31v-469zM250 288q0 103 73 176q72 72 177 74q103 1 177 -74q73 -74 73 -176q0 -101 -73 -177t-177 -73t-177 73t-73 177zM313 273q6 -78 65 -128q60 -51 137 -45
t128 65t45 137q-6 79 -66 128q-60 50 -137 45t-128 -65q-50 -59 -44 -137zM375 288q0 49 36 87q35 36 89 38q16 0 16 -16t-16 -16q-39 0 -66 -27t-28 -66q0 -16 -15 -16t-16 16z" />
    <glyph glyph-name="photo_light" unicode="&#xe840;" horiz-adv-x="937" 
d="M0 725q0 53 36 89t89 36h687q53 0 89 -36t36 -89v-749q0 -53 -36 -89t-89 -36h-687q-53 0 -89 36t-36 89v749zM63 -24q0 -25 18 -44t44 -19h687q26 0 44.5 19t18.5 44v749q0 25 -19 43.5t-44 18.5h-687q-25 0 -43.5 -18t-18.5 -44v-749zM125 694q0 13 9 22t22 9h625
q14 0 23 -9t9 -22v-563q0 -13 -9 -22t-23 -9h-625q-13 0 -22 9t-9 22v563zM156 131h483l-106 121l-252 286l-125 -145v-262zM156 442l102 117q9 11 22.5 10.5t24.5 -10.5l246 -281l82 94q10 9 23 9t24 -9l101 -112v434h-625v-252zM500 538q0 39 27 66t67 27t66 -27t28 -66
q1 -39 -28 -67q-30 -29 -66 -27q-35 1 -67 27t-27 67zM531 538q0 -26 19 -44t44 -19q12 0 23.5 5t20 14t13.5 20.5t5 23.5q-1 24 -18 43t-44 19t-44 -19t-19 -43zM572 254l108 -123h101v82l-125 137z" />
    <glyph glyph-name="attach_light" unicode="&#xe841;" 
d="M0 99q0 91 64 155l456 451q82 82 199 82t199 -82t82 -199t-82 -199l-344 -341q-23 -22 -44 -1t1 43l338 340q32 32 48.5 70t16.5 83q0 89 -65 156q-64 66 -155 64q-89 -1 -153 -64l-454 -448q-44 -43 -44 -109q0 -64 45 -109q45 -46 111 -46q33 0 59.5 11.5t49.5 33.5
l457 450q13 13 20 30.5t7 35.5t-7 35.5t-20 31.5q-14 14 -31 20.5t-35.5 6.5t-36 -7t-30.5 -20l-341 -344q-11 -12 -22.5 -11t-22.5 12q-21 23 0 44l341 344q23 23 51.5 33.5t60.5 10.5q65 0 110 -45q44 -44 46 -111q1 -66 -45 -111l-457 -448q-65 -65 -155 -65
q-91 0 -154 64q-32 32 -48 70t-16 83z" />
    <glyph glyph-name="lock_light" unicode="&#xe842;" horiz-adv-x="750" 
d="M0 350q0 39 27 66t67 28v125q0 117 82 199t199 82t199 -82t82 -199v-125q39 0 67 -28q27 -27 27 -66v-219q0 -116 -82 -198t-199 -82h-188q-117 0 -199 82t-82 198v219zM63 131q0 -90 64 -153q65 -65 154 -65h188q89 0 154 65q65 63 65 153v219q0 14 -9 22.5t-23 8.5
h-562q-14 0 -22.5 -9t-8.5 -22v-219zM156 444h63v125q0 64 46 110t110 46t110 -46t46 -110v-125h63v125q0 89 -65 154q-64 64 -154 64t-154 -64q-65 -65 -65 -154v-125zM250 444h250v125q0 51 -36 89t-89 36q-27 0 -49.5 -9.5t-39.5 -26t-26.5 -39.5t-9.5 -50v-125zM313 194
q0 25 18 44t44 18q26 -2 44 -18q18 -17 18 -44.5t-21 -83.5q-15 -41 -41 -41t-41 41q-10 28 -15.5 49t-5.5 35z" />
    <glyph glyph-name="eye_light" unicode="&#xe843;" horiz-adv-x="998" 
d="M0 359q0 1 2 3v4q71 131 206 213q137 83 290 83q154 0 291 -83q138 -83 205 -215l2 -2v-4q2 -6 2 -8t-2 -8v-4l-2 -2q-67 -132 -205 -215q-137 -83 -291 -83q-153 0 -290 83q-135 81 -206 215v2q-2 2 -2 3v18zM66 350q65 -113 183 -182q119 -69 250 -68q133 2 250 68
q119 68 183 182q-65 113 -183 182q-119 69 -250 68q-133 -2 -250 -68q-119 -68 -183 -182zM279 350q0 89 65 154q63 63 154 65q89 2 154 -65t65 -154t-65 -154t-154 -65q-91 2 -154 65q-65 65 -65 154zM311 350q2 -79 54 -133q54 -55 133 -54t133 54q53 52 55 133
q2 80 -55 133q-57 54 -133 55q-78 2 -133 -55q-54 -55 -54 -133zM373 350q0 53 37 89t88 36q16 0 16 -16t-16 -15q-18 0 -35 -7.5t-30 -20.5t-21 -30t-8 -36q0 -16 -15 -16t-16 16z" />
    <glyph glyph-name="tag_light" unicode="&#xe844;" horiz-adv-x="1002" 
d="M0 600q0 50 36 88q36 37 89 37h594q67 0 105 -59l156 -250q41 -66 0 -132l-156 -250q-38 -58 -105 -58h-594q-52 0 -89 35q-36 36 -36 89v500zM63 100q0 -25 18 -43.5t44 -18.5h594q34 0 52 29l157 250q21 33 0 66l-157 250q-18 29 -52 29h-594q-25 0 -43.5 -18
t-18.5 -44v-500zM625 350q1 39 27.5 66t66.5 28t66 -28q25 -29 27 -66q1 -38 -27 -66q-29 -29 -66 -28q-39 2 -67 28q-27 26 -27 66zM656 350q0 -25 19 -44t44 -18t44 18t18 44t-18 44t-44 19q-14 1 -25 -4.5t-19 -14.5t-13 -20.5t-6 -23.5z" />
    <glyph glyph-name="thumbs_up_light" unicode="&#xe845;" 
d="M0 444q0 39 27 66.5t67 27.5h94q31 0 60 -24l33 16q63 30 93.5 87.5t31.5 138.5q0 39 28 67q27 27 66 27q29 -1 55 -16.5t50 -47.5q47 -64 49 -147q0 -33 -2 -58.5t-6 -44.5q235 -6 266 -14q43 -12 65.5 -43t22.5 -63v-23q0 -38 -27 -68q17 -35 11 -75q-8 -56 -41 -86
q8 -19 8 -39.5t-8 -43.5q-19 -60 -52 -82q7 -27 0 -54l-6 -17.5t-8 -16.5q-32 -60 -111 -60h-172q-46 0 -92 5t-94 16l-127 30h-2q0 2 -3 2h-4v2q-28 -55 -84 -55h-94q-39 0 -66.5 27t-27.5 67v499zM63 -55q0 -14 8 -23t23 -9h94q13 0 22 9t9 23v499q0 13 -9 22t-22 9h-94
q-14 0 -22.5 -9t-8.5 -22v-499zM94 -8q0 18 13 32t34 14t33 -14t14 -32q1 -9 -3 -18t-11 -16t-15.5 -10.5t-17.5 -2.5q-17 2 -34 13t-13 34zM125 -8q0 -16 16 -16t15 16q-2 15 -15 14q-14 -2 -16 -14zM250 -5q0 -23 27 -27q11 -3 47 -12t98 -23q45 -10 87.5 -15t84.5 -5h172
q41 0 56 28q7 17 8 23q6 12 -2 27t-29 15h-49q-16 0 -16 16t16 16h51q32 0 49 10q18 10 22 20t11 30q21 65 -39 65h-63q-15 0 -15 15q0 14 15 16h74q58 0 69 66q3 22 -8.5 40.5t-42.5 18.5h-61q-15 0 -15 15q0 14 15 16h63q62 0 62 45v21q0 38 -37 47q-45 12 -337 12
q19 58 24 84q5 28 5 81q0 55 -32 102q-30 45 -60 45q-31 -1 -31 -31q-1 -90 -46 -173q-44 -81 -142 -122q-3 0 -4 -1l-2 -1q-25 -7 -25 -33v-431z" />
    <glyph glyph-name="pencil_light" unicode="&#xe846;" 
d="M0 -40q0 8 2 16.5t2 13.5v2l74 266q9 33 31 53l325 324v2l152 154q58 59 146 59q106 0 186 -80q73 -74 81 -171q7 -96 -58 -161l-476 -480q-11 -12 -25 -19t-30 -12l-263 -70l-10 -3q-5 -2 -14 -2.5t-14 -0.5q-23 0 -42.5 8.5t-34.5 23.5t-23.5 34.5t-8.5 42.5zM63 -40
q0 -19 13 -33t33 -14q7 0 22 4l115 32q4 57 -43 104q-45 45 -105 43l-32 -118q-3 -14 -3 -18zM107 127q66 -1 118 -52q50 -49 52 -119l116 30l11 6q42 46 34 114q-8 69 -61 121q-50 48 -115 59q-64 10 -112 -24q-4 -5 -6.5 -10.5t-4.5 -10.5zM238 352q44 -1 90 -20l295 295
q-89 22 -144 -33zM357 317q19 -10 35 -20.5t30 -24.5q21 -21 41 -55l297 299q-8 16 -17.5 29.5t-21.5 25.5q-28 28 -67 45zM479 188q16 -40 21 -82v-24l242 245v2q61 60 31 156zM580 696q109 0 186 -80q36 -36 57 -77.5t21 -88.5v-22l52 55q22 23 32.5 50.5t8.5 60.5
q-5 73 -62 131q-64 62 -143 62q-60 0 -101 -41z" />
    <glyph glyph-name="comment_light" unicode="&#xe847;" 
d="M0 413q0 155 147 265q146 109 353 109q206 0 354 -109t146 -265t-146 -266q-145 -110 -354 -109q-23 0 -47 1.5t-49 5.5q-14 -17 -36.5 -36t-52.5 -41q-59 -43 -122 -55h-9q-12 0 -20 8t-8 20q0 4 2 12q0 2 13 21q7 10 11.5 17t6.5 11q2 5 5.5 12t7.5 18q8 21 12.5 36
t4.5 32v2q-103 54 -160.5 134t-58.5 177zM63 413q0 -38 12 -74t35.5 -69t58 -61t79.5 -50q33 -16 33 -57v-6q0 -41 -21 -92q30 19 54 38.5t41 41.5q18 24 49 24q2 0 8 -2q45 -6 88 -6q182 0 310 92t127 221t-127 220q-125 90 -310 92q-183 1 -310 -92q-127 -94 -127 -220z
M156 413q0 89 102 154q104 65 242 64q16 0 16 -15t-16 -16q-125 0 -219 -57t-93 -130q0 -16 -16 -16t-16 16z" />
    <glyph glyph-name="location_light" unicode="&#xe848;" horiz-adv-x="750" 
d="M0 475q0 157 109 266q110 110 266 109q157 -1 266 -109t109 -266q0 -78 -28 -159.5t-85 -166.5l-54 -77l-47 -64q-22 -28 -50 -60.5l-60 -71.5q-22 -25 -49 -25h-4q-27 0 -49 25l-60 72l-50 60q-22 28 -47 63l-54 78q-113 168 -113 326zM63 475q1 -72 28.5 -149.5
t84.5 -161.5q57 -82 95 -128l44 -52l56 -67h2q2 -2 2 -4l4 4l56 66.5l44 52.5t42.5 55l51.5 73q57 81 86.5 161t28.5 150q0 129 -92 221t-221 91q-130 -2 -221 -91q-91 -90 -91 -221zM188 483q2 79 54 133q54 55 133 54t133 -54q53 -52 55 -133q2 -80 -55 -133
q-57 -54 -133 -55q-78 -2 -133 55q-54 55 -54 133zM219 483q0 -65 46 -111t110 -45q63 1 110 45q46 43 46 111q0 67 -46 110t-110 46t-110 -46t-46 -110z" />
    <glyph glyph-name="cup_light" unicode="&#xe849;" horiz-adv-x="875" 
d="M0 631q0 26 17 43t42 20l39 113q15 43 58 43h563q43 0 58 -43l39 -113q24 -2 41.5 -20t17.5 -43v-93q0 -26 -19 -44.5t-44 -18.5h-33l1 -3q1 -2 1 -5l-62 -561q-3 -24 -21.5 -39.5t-41.5 -15.5h-437q-24 0 -41 16t-22 39l-62 561q0 3 1 5l1 3h-33q-26 0 -44.5 19
t-18.5 44v93zM63 538h749v93h-749v-93zM125 694h625l-31 93h-563zM156 475l10 -94h543l10 94h-563zM170 350l35 -312h465l35 312h-535zM209 6l10 -93h437l10 93h-457z" />
    <glyph glyph-name="trash_light" unicode="&#xe84a;" horiz-adv-x="875" 
d="M0 637q0 18 7.5 34t20.5 28t30 19t36 7h94v31q0 39 27 66.5t66 27.5h313q39 0 66.5 -27t27.5 -67v-31h93q18 0 35 -6.5t30 -18.5t21 -28t8 -35v-68q0 -26 -19 -44t-44 -19v-530q0 -53 -36 -89t-88 -36h-500q-53 0 -89 36t-36 89v530q-26 0 -44.5 19t-18.5 44v68zM63 569
h749v62q0 31 -31 31h-687q-31 0 -31 -31v-62zM125 -24q0 -25 19 -44t44 -19h500q25 0 43.5 19t18.5 44v530h-625v-530zM188 413q0 13 8 22t23 9h62q14 0 23 -9t9 -22v-407q0 -12 -9 -21t-23 -9h-62q-14 0 -22.5 9t-8.5 21v407zM219 6h62v407h-62v-407zM250 725h375v31
q0 14 -9 22.5t-22 8.5h-313q-13 0 -22 -8t-9 -23v-31zM375 413q0 13 9 22t22 9h63q13 0 22 -9t9 -22v-407q0 -12 -9 -21t-22 -9h-63q-13 0 -22 9t-9 21v407zM406 6h63v407h-63v-407zM563 413q0 13 8 22t23 9h62q14 0 23 -9t9 -22v-407q0 -12 -9 -21t-23 -9h-62
q-14 0 -22.5 9t-8.5 21v407zM594 6h62v407h-62v-407z" />
    <glyph glyph-name="doc_light" unicode="&#xe84b;" 
d="M0 600q0 39 27 66.5t67 27.5h31v62q0 39 27 66.5t67 27.5h687q39 0 66.5 -27t27.5 -67v-780q0 -53 -36 -89t-89 -36h-750q-53 0 -89 36t-36 89v624zM63 -24q0 -25 18 -44t44 -19h750q25 0 43.5 19t18.5 44v780q0 31 -31 31h-687q-31 0 -31 -31v-750q0 -15 -10 -22
t-21.5 -7t-21.5 7t-10 22v625h-31q-14 0 -22.5 -9t-8.5 -22v-624zM250 -8q0 14 16 14h250q15 0 15 -14q0 -15 -15 -16h-250q-16 0 -16 16zM250 84q0 16 16 16h250q15 0 15 -16q0 -17 -15 -15h-250q-16 0 -16 15zM250 178q0 16 16 16h250q15 0 15 -16q0 -6 -5 -11t-10 -4
h-250q-16 0 -16 15zM250 272q0 16 16 16h593q16 0 16 -16t-16 -16h-593q-16 0 -16 16zM250 366q0 15 16 15h593q16 0 16 -15t-16 -16h-593q-16 0 -16 16zM250 694q0 13 9 22t22 9h219q14 0 22.5 -9t8.5 -22v-219q0 -14 -9 -22.5t-22 -8.5h-219q-13 0 -22 9t-9 22v219z
M313 506h156v156h-156v-156zM594 -8q0 14 15 14h250q16 0 16 -14q0 -15 -16 -16h-250q-15 0 -15 16zM594 84q0 16 15 16h250q16 0 16 -16t-16 -15h-250q-15 0 -15 15zM594 178q0 16 15 16h250q16 0 16 -16q0 -6 -5 -11t-11 -4h-250q-15 0 -15 15zM594 459q0 16 15 16h250
q16 0 16 -16t-16 -15h-250q-15 0 -15 15zM594 553q0 16 15 16h250q16 0 16 -16t-16 -15h-250q-15 0 -15 15zM594 647q0 15 15 15h250q16 0 16 -15t-16 -16h-250q-15 0 -15 16z" />
    <glyph glyph-name="key_light" unicode="&#xe84c;" 
d="M0 6q0 21 18 39l379 379q-22 56 -22 114q0 128 92 220t221 92q128 0 220 -92q90 -90 92 -220q1 -128 -92 -221t-220 -92q-58 0 -114 22l-74 -73v-74q0 -25 -19 -43.5t-43 -18.5h-63v-62q0 -25 -19 -44t-43 -19h-73l-45 -44q-9 -8 -18.5 -13t-20.5 -5h-93q-26 0 -44.5 19
t-18.5 43v93zM63 -87h87l45 45q18 18 45 18h73v62q0 25 18 43.5t44 18.5h63v74q0 26 17 43l106 106q61 -35 127 -35q103 0 176 73t73 177t-73 176t-176 73t-177 -73t-73 -176q0 -66 35 -127l-410 -409v-89zM625 625q0 2 2 10q23 65 88 88q15 6 27 -4q74 -53 127 -127
q6 -8 6 -17q0 -2 -2 -10q-23 -65 -88 -88q-15 -6 -27 4q-74 53 -127 127q-6 7 -6 17zM656 625q26 -35 55.5 -64.5t63.5 -54.5q51 18 69 69q-25 34 -54.5 63.5t-64.5 55.5q-51 -18 -69 -69z" />
    <glyph glyph-name="database_light" unicode="&#xe84d;" horiz-adv-x="875" 
d="M0 647q0 97 131 150q66 26 142.5 39t164.5 14q174 1 306 -53q131 -54 131 -150v-594q0 -96 -131 -149q-66 -26 -142 -39t-164 -14q-174 -1 -307 53q-131 54 -131 149v594zM63 53q0 -59 109 -99q111 -41 266 -41q156 0 265 41t109 99v117q-47 -48 -150 -75
q-105 -27 -224 -26q-60 1 -116 7t-109 19q-105 25 -150 75v-117zM63 241q0 -60 109 -100q111 -41 266 -41q156 0 265 41t109 100v117q-47 -50 -150 -75t-224 -27q-120 -2 -225 27q-105 28 -150 75v-117zM63 428q0 -59 109 -99q111 -41 266 -41q156 0 265 41t109 99v108
q-59 -45 -160 -69q-104 -24 -214 -23q-57 1 -110 6.5t-105 16.5q-103 22 -160 69v-108zM63 647q2 -60 109 -100q111 -41 266 -41q156 0 265 41q107 40 109 100q1 58 -109 99q-55 20 -121 30t-144 11q-154 1 -266 -41q-109 -41 -109 -99zM688 38q0 13 8 22t23 9t22 -9t9 -22
t-9 -23t-22 -9t-23 9t-8 23zM688 225q0 29 31 31q15 1 22 -9t9 -22t-9 -22t-22 -9t-23 9t-8 22zM688 413q0 13 8 22t23 9t22 -9t9 -22t-9 -23t-22 -9t-23 9t-8 23z" />
    <glyph glyph-name="megaphone_light" unicode="&#xe84e;" 
d="M0 413q0 66 36 111t89 45h289q63 0 119 44.5t96 125.5h2q58 111 150 111q101 0 160 -131q29 -66 43.5 -142t15.5 -164q1 -174 -59 -307q-60 -131 -160 -130q-92 0 -150 110h-2q-78 155 -199 168l-8 -2v-2q-4 -1 -10 -7q-2 -2 -2 -4q-4 -5 -4 -12v-221q0 -8 16 -25t16 -36
v-32q0 -25 -19 -43.5t-44 -18.5h-125q-25 0 -43.5 19t-18.5 43v281q0 25 -19 43.5t-44 18.5q-52 -1 -89 45q-36 45 -36 112zM63 413q1 -40 18.5 -67t43.5 -27h219q-31 37 -31 94q0 58 31 93h-219q-25 0 -43.5 -27t-18.5 -66zM232 256q18 -29 18 -62v-281h125v28l-4 4
q-27 33 -27 61v219q0 16 6 31h-118zM344 413q1 -40 18.5 -67t43.5 -27h8q85 0 162 -63q-7 37 -10 76t-3 81q0 82 13 156q-77 -63 -162 -63h-8q-25 0 -43.5 -27t-18.5 -66zM625 413q0 -48 6 -94h88q25 0 44 27t18 67t-18 66.5t-44 26.5h-88q-6 -47 -6 -93zM639 256
q19 -96 57 -158q37 -60 85 -60q65 2 111 109q46 109 45 266t-45 265q-44 109 -111 109q-24 0 -45.5 -15.5t-40 -44t-33 -69t-23.5 -89.5h80q51 0 89 -45q37 -45 36 -111q-1 -65 -36 -112q-33 -45 -89 -45h-80z" />
    <glyph glyph-name="graduation_light" unicode="&#xe84f;" 
d="M0 600q0 33 21 59t51 33l407 94q21 1 43 0l406 -94q31 -8 51 -33t21 -59t-20.5 -59.5t-51.5 -32.5l-84 -19v-264q0 -34 -20.5 -62.5t-63 -49.5t-107.5 -32.5t-153 -11.5t-153 11.5t-107.5 32.5t-63 49.5t-20.5 62.5v264l-84 19q-31 7 -51 32.5t-21 59.5zM63 600
q0 -25 23 -31l406 -94h16l406 94q23 6 23 31t-23 31l-406 94h-16l-406 -94q-23 -6 -23 -31zM219 225q0 -20 29 -40q30 -21 97 -37q70 -17 155 -17t155 17q69 17 97.5 37t28.5 40v250l-259 -61q-22 -1 -43 0l-260 61v-250zM875 -24q0 29 20 77q20 47 42 47t43 -47
q20 -44 20 -77q-1 -25 -19.5 -44t-43.5 -19t-43 19t-19 44zM906 444q0 15 10 22.5t21.5 7.5t21.5 -7.5t10 -22.5v-281q0 -16 -10 -24t-21.5 -8t-21.5 8t-10 24v281z" />
    <glyph glyph-name="fire_light" unicode="&#xe850;" horiz-adv-x="688" 
d="M0 135q0 75 18 167q18 91 33 156q15 63 13 170q-2 105 -33 222l20 -14q9 -6 22.5 -17.5t28.5 -26.5l31.5 -32.5t32.5 -36.5q31 -37 65 -97q33 -58 48 -118q64 95 65 186l31 -35q15 -17 30 -44t31 -62t24 -69.5t7 -69.5l15 20q16 21 33 60q17 41 16 75q96 -118 135 -251
q40 -134 10 -249q-7 -26 -14 -46t-17 -37.5t-23.5 -33.5t-32.5 -34q-39 -35 -106.5 -50t-169.5 -17q-135 -1 -225 85q-88 85 -88 199zM63 135q0 -88 69 -154q70 -68 181 -68q75 -1 128.5 10.5t83.5 26.5q29 15 49 42q10 13 16.5 24t10.5 19t7 20.5l7 28.5q19 80 3.5 165.5
t-67.5 178.5q-61 -103 -145 -172q0 46 -2.5 90t-7.5 86q-11 86 -25 113q-11 -29 -39.5 -75t-73.5 -110q0 7 -12 51q-6 22 -17 52t-27 70q-31 77 -75 137q8 -125 -33 -310q-31 -140 -31 -225zM113 112q0 145 41 263l16 47l16 -41l27 -69t39 -95l49 74l47 75v-53
q0 -64 23 -135q38 19 68 41l25 19.5t18 16.5l36 40l27 30l6 -32q11 -60 5.5 -114t-25.5 -104q-4 -10 -13 -10q-4 0 -6 2q-12 6 -8 19q14 37 18.5 78.5t0.5 89.5q-29 -33 -66.5 -63t-87.5 -50l-15 -6l-6 16q-23 64 -28 111l-58 -84l-16 -21l-12 23q-25 48 -39 85.5t-25 63.5
q-25 -82 -25 -217q0 -16 -16 -16t-16 16z" />
    <glyph glyph-name="paper_plane_light" unicode="&#xe851;" horiz-adv-x="857" 
d="M429 -70q-97 0 -183 40q-43 20 -80 48t-67 65q-5 5 -4.5 12t5.5 12l76 77q5 5 14 5q8 0 13 -7q41 -53 100 -82t126 -29q58 0 110 22.5t91 61.5t61.5 91t22.5 111t-22.5 111t-61.5 91t-91 61.5t-110 22.5q-56 0 -106 -19.5t-89 -57.5l77 -77q17 -17 8 -38q-10 -22 -33 -22
h-250q-15 0 -25.5 10.5t-10.5 24.5v250q0 24 22 33t39 -8l72 -72q60 57 136.5 88t159.5 31q88 0 166 -34q79 -35 137 -92q56 -56 91 -137q34 -78 34 -166t-34 -166q-34 -79 -91 -137q-59 -58 -137 -90q-78 -34 -166 -34zM500 268q0 -18 -18 -18h-178q-18 0 -18 18v36
q0 17 18 17h125v197q0 8 4.5 13t12.5 5h36q8 0 13 -5t5 -13v-250z" />
    <glyph glyph-name="cloud_light" unicode="&#xe852;" 
d="M0 178q0 55 27 102t75 74q-8 22 -8 43q0 58 41 99q40 40 99 42q19 0 43 -8q34 75 101.5 119.5t152.5 44.5q110 0 189 -73t91 -181q83 -17 135 -80q54 -66 54 -151q1 -95 -68 -166q-67 -67 -166 -67h-563q-84 0 -143 59q-60 62 -60 143zM63 178q0 -58 41 -99t99 -41h563
q69 0 121 50t50 121q0 63 -39 110q-38 46 -99 58q-33 6 -42 15q-6 6 -9 42q-3 42 -21 77t-49 64q-62 57 -147 56q-62 0 -117 -34q-28 -17 -47 -40.5t-33 -52.5q-5 -10 -7.5 -15.5l-4 -9t-3.5 -6l-5 -6.5q-6 -8 -15 -6t-22 6q-11 5 -21.5 6.5t-21.5 1.5q-33 -1 -55 -22.5
t-23 -55.5q0 -12 4 -24q14 -34 10 -44q-5 -11 -37 -30q-70 -40 -70 -121z" />
    <glyph glyph-name="globe_light" unicode="&#xe853;" horiz-adv-x="969" 
d="M0 366q0 201 142 342q142 140 342 142q199 1 343 -142q143 -143 142 -342q-2 -200 -142 -343q-141 -142 -343 -141q-201 1 -342 141t-142 343zM63 350q8 -167 125 -283q53 38 109 60q-22 54 -33.5 109t-13.5 114h-187zM250 381q5 106 37 196q-31 13 -60 29.5t-57 38.5
q-103 -113 -107 -264h187zM191 668q52 -40 108 -62q44 101 117 176q-131 -23 -225 -114zM211 45q88 -74 205 -94q-32 32 -58.5 68.5t-46.5 78.5q-26 -10 -51.5 -23t-48.5 -30zM281 350q4 -111 45 -213q35 11 70.5 17.5t72.5 8.5v187h-188zM469 381v157q-76 3 -153 29
q-16 -45 -24.5 -91t-10.5 -95h188zM328 596q69 -23 141 -27v218h-2q-90 -76 -139 -191zM340 110q49 -99 127 -165h2v186q-69 -5 -129 -21zM500 -55h2q78 66 127 165q-62 16 -129 21v-186zM500 163q37 -2 72.5 -8.5t70.5 -17.5q40 102 45 213h-188v-187zM500 381h188
q-5 97 -36 186q-75 -26 -152 -29v-157zM500 569q72 4 141 27q-49 115 -139 191h-2v-218zM553 -49q117 20 205 94q-23 17 -48.5 30t-51.5 23q-20 -42 -46.5 -78.5t-58.5 -68.5zM553 782q73 -75 117 -176q57 22 107 62q-93 91 -224 114zM672 127q56 -22 109 -60
q118 118 125 283h-187q-2 -59 -13.5 -114t-33.5 -109zM682 577q32 -90 37 -196h187q-6 151 -107 264q-28 -22 -57 -38.5t-60 -29.5z" />
    <glyph glyph-name="inbox_light" unicode="&#xe854;" 
d="M0 256q0 4 0.5 8.5t1.5 9.5l125 469q5 19 21.5 31.5t39.5 12.5h624q22 0 39 -12t22 -32l125 -469q1 -5 1.5 -9.5t0.5 -8.5v-218q0 -52 -36 -88q-37 -37 -89 -37h-750q-53 0 -89 37t-36 88v218zM63 38q0 -26 18 -44t44 -18h750q25 0 43.5 17.5t18.5 44.5v218l-125 469
h-624l-125 -469v-218zM229 639q6 23 29 23h484q23 0 29 -23l108 -375q5 -16 -4.5 -27.5t-24.5 -11.5h-143l-45 -90q-17 -35 -57 -35h-210q-40 0 -57 35l-45 90h-143q-15 0 -24.5 12t-4.5 27zM166 288h127q39 0 57 -36l45 -89h210l45 89q18 36 57 36h127l-92 343h-484z" />
    <glyph glyph-name="cart" unicode="&#xe855;" 
d="M894 261h-737v-92h737v92zM116 322h819v203h-819v-203zM526 738q-33 0 -63.5 -11.5t-54.5 -32t-40.5 -48.5t-21.5 -60h359q-5 32 -21 60t-40 48.5t-54.5 32t-63.5 11.5zM996 261h-41v-154h-859v154h-41v407h-51v61h112v-143h168q5 41 23.5 77.5t46 64t64 46t77.5 23.5v53
h61v-53q41 -5 77.5 -23.5t64 -46t46 -64t23.5 -77.5h229v-325zM856 -88q18 -1 27.5 11t9.5 27t-9.5 27t-27.5 11q-18 1 -27.5 -11t-9.5 -27t9.5 -27t27.5 -11zM856 48q42 0 70.5 -28.5t28.5 -69.5q0 -42 -28.5 -70.5t-70.5 -28.5t-70.5 28.5t-28.5 70.5q0 41 28.5 69.5
t70.5 28.5zM195 -88q18 -1 27.5 11t9.5 27t-9.5 27t-27.5 11q-18 1 -27.5 -11t-9.5 -27t9.5 -27t27.5 -11zM195 48q42 0 70.5 -28.5t28.5 -69.5q0 -42 -28.5 -70.5t-70.5 -28.5t-70.5 28.5t-28.5 70.5q0 41 28.5 69.5t70.5 28.5z" />
    <glyph glyph-name="resize_small" unicode="&#xe856;" horiz-adv-x="857" 
d="M429 64q0 -12 -6.5 -20t-16 -12t-20 -2.5t-18.5 9.5l-81 81l-185 -185q-5 -5 -13 -5t-12 5l-64 64q-13 12 0 25l185 185l-80 80q-8 8 -10 18.5t2 20t12.5 16t20.5 6.5h250q14 0 25 -11t11 -25v-250zM850 689q0 -8 -6 -12l-185 -186l80 -80q8 -8 9.5 -18.5t-2 -20t-12 -16
t-20.5 -6.5h-250q-14 0 -24.5 11t-10.5 25v250q0 12 6.5 20.5t15.5 12t19.5 2t18.5 -9.5l81 -80l185 185q14 14 26 0l63 -64q6 -5 6 -13z" />
    <glyph glyph-name="desktop_light" unicode="&#xe857;" 
d="M0 725q0 39 27 66.5t67 27.5h812q39 0 67 -28q27 -27 27 -66v-625q0 -39 -27 -66.5t-67 -27.5h-312v-36l195 -25q23 -6 23 -32q0 -13 -8 -22t-23 -9h-562q-14 0 -23 9t-8 22q0 26 23 32l195 25v36h-312q-39 0 -67 28q-27 27 -27 66v625zM63 100q0 -31 31 -31h812
q14 0 22.5 9t8.5 22v625q0 31 -31 31h-812q-14 0 -22.5 -9t-8.5 -22v-625zM125 662q0 14 9 23t22 9h688q13 0 22 -9t9 -23v-437q0 -14 -9 -22.5t-22 -8.5h-688q-13 0 -22 9t-9 22v437zM156 225h688v437h-688v-437z" />
    <glyph glyph-name="tv_light" unicode="&#xe858;" 
d="M36 47q-71 303 0 606q10 43 53 47q206 25 410 24.5t410 -24.5q45 -6 55 -47q36 -152 36.5 -303t-36.5 -303q-10 -42 -55 -47q-48 -5 -96.5 -9t-100.5 -7q6 -5 6 -8q0 -14 -65 -23q-32 -5 -70.5 -7t-83.5 -1t-83.5 2.5t-70.5 5.5q-65 8 -65 23q0 3 6 8q-52 3 -100.5 7
t-96.5 9q-43 4 -53 47zM97 63q402 -51 806 0q69 287 0 574q-404 51 -806 0q-69 -287 0 -574zM157 147q-66 207 0 412q6 18 24 21q256 52 511 0q18 -3 24 -21q66 -204 0 -412q-6 -19 -24 -22q-130 -26 -255 -26t-256 26q-18 3 -24 22zM189 157q247 -51 498 0q65 197 0 392
q-251 52 -498 0q-65 -195 0 -392zM259 454q5 14 19 15l143 12q16 1 16 -16q0 -16 -16 -15l-117 -8q-17 -2 -18 -18l-6 -58q0 -16 -15 -16t-14 16zM749 147q0 16 16 16h93q16 0 16 -16t-16 -16h-93q-16 0 -16 16zM780 241q0 15 16 15h94q15 0 15 -15t-15 -16h-94
q-16 0 -16 16zM780 334q0 16 16 16h94q15 0 15 -16q0 -17 -15 -15h-94q-16 0 -16 15zM780 522q0 19 14 33t33 14t33 -14t14 -33t-14 -33t-33 -14t-33 14t-14 33zM812 522q0 -16 15 -16t16 16t-16 16q-16 0 -15 -16z" />
    <glyph glyph-name="wallet_light" unicode="&#xe859;" 
d="M0 647q0 70 51 121t121 51h640q20 0 37 -7.5t30 -20.5t20 -30t7 -36v-281q94 -70 94 -188q0 -117 -94 -187v-47q0 -69 -51 -120t-121 -51h-562q-70 0 -121 51t-51 120v625zM63 22q0 -22 8.5 -42t23.5 -35t34.5 -23.5t42.5 -8.5h562q45 0 78 33q32 32 32 76v47h-281
q-65 0 -111 46t-46 110t46 110t111 46h281v63q0 13 -9 22t-23 9h-640q-63 0 -109 39v-492zM63 647q0 -45 31 -76v123q0 13 9 22t22 9h656q14 0 23 -9t9 -22v-156q14 0 31 -6v193q0 14 -9 22.5t-23 8.5h-640q-23 0 -42.5 -8.5t-34.5 -23.5t-23.5 -35t-8.5 -42zM125 549
q24 -11 47 -11h609v31h-656v-20zM125 600h656v31h-656v-31zM125 662h656v32h-656v-32zM469 225q0 -39 27 -66.5t67 -27.5h320q54 51 54 125q0 58 -35 104v-2l-7 -14q-19 -25 -51 -25h-281q-20 0 -37 -7.5t-30 -20.5t-20 -30t-7 -36zM500 225q1 25 19.5 44t43.5 19t43 -19
t19 -44q0 -12 -5 -23.5t-14 -20t-20 -13.5t-23 -5t-23.5 5t-20.5 13t-14.5 19t-4.5 25z" />
    <glyph glyph-name="t_shirt_light" unicode="&#xe85a;" 
d="M4 580q-6 20 -1.5 37.5t21.5 31.5l156 125q16 13 39 13h562q23 0 39 -13l157 -125q33 -26 19 -69l-62 -187q-9 -28 -39 -39q-9 -4 -20 -4q-17 0 -31 8v-382q0 -25 -19 -44t-44 -19h-562q-26 0 -44.5 19t-18.5 44v382q-14 -8 -31 -8q-11 0 -19 4q-30 10 -39 39zM63 600
l62 -187l94 62v-499h562v499l94 -62l63 187l-157 125h-131q-13 -42 -54 -67.5t-96 -26.5q-27 0 -51.5 7t-44.5 20t-34 30t-20 37h-131zM383 725q14 -27 44.5 -45t72.5 -18t72.5 18t44.5 45h-234z" />
    <glyph glyph-name="lightbulb_light" unicode="&#xe85b;" horiz-adv-x="687" 
d="M0 506q2 144 101 243t243 101q142 1 243 -101q101 -103 101 -243q0 -54 -30 -121q-15 -34 -33 -68.5l-38 -71.5t-34 -65.5t-22 -50.5q-8 -20 -15.5 -43t-15.5 -51l-24 -81q-8 -27 -27 -53t-42 -39q-21 -13 -63 -11q-38 1 -64 11q-25 9 -41 39q-18 32 -26 53
q-5 11 -11 31.5l-14 49.5t-16 53t-16 41q-8 22 -21 51t-34 66q-42 75 -71.5 139t-29.5 121zM63 506q0 -32 20 -85t62 -128l31 -57t21 -42h293q8 17 21.5 42l31.5 57q42 76 62 129t20 84q0 117 -82 199t-199 82t-199 -82t-82 -199zM156 506q0 78 55 133t133 55q15 0 15 -16
t-15 -16q-65 0 -111 -45q-47 -45 -45 -111q0 -15 -16 -15t-16 15zM223 131q5 -17 10 -31.5t9 -28.5l213 27q1 6 3.5 14t6.5 19h-242zM252 41l18 -59l154 18q3 8 6 17.5t6 20.5q2 5 4 15t3 12zM281 -47q12 -26 25 -33t38 -7q29 0 43 10t27 45z" />
    <glyph glyph-name="clock_light" unicode="&#xe85c;" horiz-adv-x="687" 
d="M0 350q0 121 86 213l43 236q4 22 21 36.5t41 14.5h250q22 0 39.5 -15t21.5 -36l45 -244q57 -65 72 -144l2 1q1 1 4 1q25 0 44 -19t19 -44t-19 -43.5t-44 -18.5h-4l-2 1q-16 -82 -76 -148l-45 -239q-4 -22 -20 -36.5t-40 -14.5h-250q-24 0 -40.5 15t-20.5 36l-45 239
q-82 89 -82 209zM63 350q1 -52 18.5 -96t54.5 -81q74 -74 177 -73q105 2 176 73q73 73 74 177q2 106 -74 177q-76 72 -176 73q-99 1 -177 -73q-76 -73 -73 -177zM94 350q0 14 9 22t22 9t23 -9t8 -22t-8 -22t-23 -9t-22 9t-9 22zM148 218q-1 15 9 22.5t22.5 7.5t22.5 -7.5
t9 -22.5q1 -15 -9 -22t-22 -10q-6 -2 -12 1.5t-11 8.5t-7.5 11t-1.5 11zM148 483q-1 15 9 22.5t22.5 7.5t22.5 -7.5t9 -22.5q1 -15 -9 -23t-22.5 -8t-22.5 8t-9 23zM188 -87h250l31 168q-75 -43 -156.5 -43t-156.5 43zM160 620q75 42 156.5 42t156.5 -42l-32 167h-250z
M281 163q-1 15 9 22.5t22.5 7.5t22.5 -7.5t9 -22.5q1 -13 -9 -23t-22 -9t-23 9t-9 23zM281 350q0 15 10 22l162 134q8 7 14 -0.5t2 -14.5l-76 -94l-59 -70q-6 -6 -15 -7.5t-18 2t-15 10.5t-5 18zM281 538q-1 15 9 22.5t22.5 7.5t22.5 -7.5t9 -22.5q1 -13 -9 -23t-22 -9
t-23 9t-9 23zM414 218q-1 15 8.5 22.5t21.5 7.5t22.5 -7.5t10.5 -23.5q0 -12 -10 -21t-23 -10t-21 10t-9 22zM469 350q0 14 9 22t22 9t22 -9t9 -22t-9 -22t-22 -9t-22 9t-9 22z" />
    <glyph glyph-name="diamond_light" unicode="&#xe85d;" 
d="M0 502q0 28 18 45l160 158q17 20 43 20h558q26 0 43 -20l160 -158q18 -17 18 -43q0 -11 -3.5 -22.5t-12.5 -20.5l-437 -464q-20 -21 -47 -21t-47 21l-437 464q-16 17 -16 41zM63 506h134l84 84l-72 61zM90 475l307 -328l-196 328h-111zM236 475l231 -383l-76 383h-155z
M240 506h143l-78 65zM242 662l61 -50l51 50h-112zM326 592l80 -66l71 58l-86 71zM422 475l78 -389l78 389h-156zM430 506h140l-70 57zM430 662l70 -58l68 58h-138zM525 584l69 -58l80 66l-65 63zM533 92l231 383h-155zM604 147l306 328h-111zM617 506h143l-65 65zM646 662
l51 -50l61 50h-112zM719 590l84 -84h133l-145 145z" />
    <glyph glyph-name="shop_light" unicode="&#xe85e;" 
d="M0 444q0 30 20 56l93 125q6 8 12 14v148q0 26 19 44.5t44 18.5h624q26 0 44.5 -19t18.5 -44v-148q6 -6 12 -14l93 -125q20 -26 20 -56v-31q0 -40 -27 -67t-67 -27v-406q0 -25 -18 -43.5t-44 -18.5h-688q-25 0 -43.5 19t-18.5 43v406q-39 0 -66.5 27t-27.5 67v31zM63 413
q0 -14 8 -23t23 -9h58l125 219h-89q-17 0 -26 -12l-94 -125q-5 -10 -5 -19v-31zM156 -87h203v312q0 14 9 22.5t23 8.5h234q14 0 22.5 -9t8.5 -22v-312h188v406h-688v-406zM188 381h130l63 219h-68zM188 662h624v125h-624v-125zM352 381h132v219h-70zM391 -87h234v312h-234
v-312zM516 381h132l-62 219h-70v-219zM619 600l63 -219h130l-124 219h-69zM723 600l125 -219h58q14 0 22.5 9t8.5 23v31q0 9 -5 19l-94 125q-9 12 -26 12h-89z" />
    <glyph glyph-name="sound_light" unicode="&#xe85f;" horiz-adv-x="1001" 
d="M0 163q0 39 27 66l98 98v429q0 30 16 53t43 33q16 8 35 8q39 0 66 -27l688 -688q45 -45 19 -101q-10 -27 -33 -42.5t-53 -15.5h-429l-98 -98q-14 -14 -31 -20.5t-35 -6.5t-35.5 6.5t-31.5 20.5l-219 218q-27 27 -27 67zM63 163q0 -15 9 -22l219 -218q9 -9 22.5 -9.5
t20.5 9.5l98 97h2l-264 264v-2l-98 -98q-9 -8 -9 -21zM186 313l277 -277l14 2h377l-666 666v-377zM188 746l708 -708h10q23 0 30 19q8 20 -8 33l-688 688q-8 9 -21 9q-8 0 -12 -1q-19 -7 -19 -30v-10zM531 819q0 13 9 22t23 9q181 0 309 -128q64 -64 95 -141t33 -168
q0 -16 -10 -24t-22 -8t-21.5 8t-9.5 24q2 78 -26.5 143.5t-83.5 120.5q-110 110 -264 110q-14 0 -23 9t-9 23zM547 709q0 16 16 16q128 0 220 -92t92 -220q0 -16 -16 -16t-15 16q0 117 -82 199t-199 82q-16 0 -16 15z" />
    <glyph glyph-name="calendar_light" unicode="&#xe860;" 
d="M0 672q0 35 24 59.5t60 24.5h135v63q0 15 9.5 22.5t21.5 7.5t21.5 -7.5t9.5 -22.5v-63h188v63q0 15 9.5 22.5t21.5 7.5t21.5 -7.5t9.5 -22.5v-63h188v63q0 15 9.5 22.5t21.5 7.5t21.5 -7.5t9.5 -22.5v-63h135q35 0 59.5 -24t24.5 -60v-737q0 -35 -24 -59.5t-60 -24.5
h-832q-35 0 -59.5 24t-24.5 60v737zM63 -65q0 -22 21 -22h832q21 0 21 22v737q0 22 -21 22h-135v-63q0 -15 -9.5 -22.5t-21.5 -7.5t-21.5 7.5t-9.5 22.5v63h-188v-63q0 -15 -9.5 -22.5t-21.5 -7.5t-21.5 7.5t-9.5 22.5v63h-188v-63q0 -15 -9.5 -22.5t-21.5 -7.5t-21.5 7.5
t-9.5 22.5v63h-135q-21 0 -21 -22v-737zM219 69v94h125v-94h-125zM219 225v94h125v-94h-125zM219 381v94h125v-94h-125zM438 69v94h125v-94h-125zM438 225v94h125v-94h-125zM438 381v94h125v-94h-125zM656 69v94h125v-94h-125zM656 225v94h125v-94h-125zM656 381v94h125v-94
h-125z" />
    <glyph glyph-name="food_light" unicode="&#xe861;" 
d="M0 116q0 33 23 55.5t55 22.5h84q22 121 117 201t221 80q103 0 186 -55q84 -56 126 -144l143 70q13 7 24 1.5t16.5 -15.5t2.5 -22t-16 -19l-150 -76q4 -11 6 -21h84q16 0 30.5 -6t25 -16.5t16.5 -25t6 -30.5q0 -22 -16 -41l-109 -122v-24q0 -33 -22 -55.5t-56 -22.5h-594
q-33 0 -55.5 22t-22.5 56v24l-109 122q-16 19 -16 41zM188 -24v-47q0 -16 15 -16h594q15 0 15 16v47l125 140q0 15 -15 15h-844q-15 0 -15 -15zM227 194q21 96 97 157q77 62 176 62q42 0 81 -12t72 -34t59.5 -52.5t43.5 -67.5l27 15q-38 83 -113 132q-77 50 -170 50
q-111 0 -198 -72t-109 -178h34zM248 485q-16 38 16 113q25 61 13 90h-2v6q0 15 16 15q9 0 14 -9q17 -42 -14 -114q-26 -62 -12 -91v-4q0 -16 -15 -16q-9 0 -14 8v2h-2zM291 194q20 68 77 112q58 44 132 44q66 0 120 -36t79 -95l30 14q-16 33 -40 60t-53.5 46.5t-64 30.5
t-71.5 11q-86 0 -153 -52q-66 -52 -89 -135h33zM357 194q18 43 56.5 68t86.5 26t86.5 -25.5t56.5 -68.5h5l24 11q-22 51 -68 82.5t-104 31.5q-61 -1 -108 -35.5t-68 -89.5h33zM430 194q28 31 70 31q41 0 68 -31h39q-38 62 -107 62t-107 -62h37zM469 625q-8 20 -5.5 48.5
t18.5 65.5q13 31 17 53t-3 37v5q0 8 4 11.5t9 4t9.5 -2t6.5 -7.5q18 -40 -13 -113q-27 -62 -14 -92q2 -2 2 -4q0 -15 -16 -15q-9 0 -15 7v2zM629 489v2q-16 38 16 111q25 60 11 90v6q0 15 16 15q9 0 14 -9q17 -42 -14 -114q-26 -61 -14 -90v-2q2 -2 2 -3q0 -16 -15 -16
q-10 0 -14 10h-2zM789 194h18q0 2 -1 4t-1 4z" />
    <glyph glyph-name="money_light" unicode="&#xe862;" horiz-adv-x="1286" 
d="M1286 18q0 -37 -27 -62q-25 -26 -63 -26h-1107q-37 0 -63 26t-26 62v589v89q0 37 26 63q27 27 63 27h1107q37 0 63 -27q27 -26 27 -63v-87v-591zM1206 387v212l-1126 2v-214h1126zM571 71v72h-214v-72h214zM286 71v72h-143v-72h143z" />
    <glyph glyph-name="params_light" unicode="&#xe863;" 
d="M0 538q0 76 63 124v94q0 19 7 36.5t20 30.5t29.5 20t36.5 7q39 -1 66.5 -26.5t27.5 -67.5v-94q63 -48 63 -124t-63 -125v-468q0 -20 -7 -37t-20 -30t-30 -20t-37 -7q-40 1 -66.5 26.5t-26.5 67.5v468q-63 48 -63 125zM63 538q0 -13 3 -26l2 -6q6 -18 21.5 -34.5
t35.5 -21.5q30 -11 63 0q13 4 25 12.5t19 20.5q8 11 12 23l2 6q5 14 4.5 26t-4.5 25l-2 6q-4 12 -12 23q-7 12 -19 21t-25 12q-32 12 -63 0q-14 -4 -24.5 -12.5t-20.5 -20.5q-8 -11 -12 -23l-2 -6q-3 -14 -3 -25zM125 -55q0 -16 10 -24t21.5 -8t21.5 8t10 24v440
q-32 -8 -63 0v-440zM125 690q30 7 63 0v66q0 15 -10 23t-21.5 8t-21.5 -8t-10 -23v-66zM344 163q0 75 62 125v468q0 39 28 67t66 27t66 -27t28 -67v-468q62 -50 62 -125t-62 -125v-93q0 -39 -28 -67q-29 -29 -66 -27q-38 1 -66 27t-28 67v93q-62 48 -62 125zM406 163
q0 -14 4 -26l2 -6q6 -18 20.5 -34.5t36.5 -21.5q31 -12 62 0q21 6 36 21.5t21 34.5l2 6q4 14 4.5 26t-4.5 25l-2 6q-10 27 -31 43q-11 10 -26 13q-31 12 -62 0q-15 -3 -26 -13q-5 -4 -9.5 -9l-9.5 -11q-8 -11 -12 -23l-2 -6q-4 -12 -4 -25zM469 -55q0 -16 9.5 -24t21.5 -8
t21.5 8t9.5 24v65q-31 -8 -62 0v-65zM469 315q31 8 62 0v441q0 15 -9.5 23t-21.5 8t-21.5 -8t-9.5 -23v-441zM688 538q0 76 62 124v94q0 19 7 36.5t20 30.5t30 20t37 7q40 -1 66.5 -26.5t26.5 -67.5v-94q63 -48 63 -124t-63 -125v-468q0 -20 -7 -37t-20 -30t-30 -20t-36 -7
q-39 1 -66.5 26.5t-27.5 67.5v468q-62 48 -62 125zM750 538q0 -14 4 -26l2 -6q4 -12 12 -23q7 -12 19 -21t25 -12q32 -12 63 0q21 6 36 21.5t21 34.5l2 6q6 27 0 51l-2 6q-6 19 -21 34t-36 22q-16 5 -31 5.5t-32 -5.5q-13 -4 -25 -12.5t-19 -20.5q-8 -11 -12 -23l-2 -6
q-4 -12 -4 -25zM812 -55q0 -16 10 -24t21.5 -8t21.5 8t10 24v440q-30 -7 -63 0v-440zM812 690q32 8 63 0v66q0 15 -10 23t-21.5 8t-21.5 -8t-10 -23v-66z" />
    <glyph glyph-name="cog_light" unicode="&#xe864;" 
d="M0 393q0 21 15 38.5t36 22.5l96 19q5 20 15 41l-53 80q-14 20 -11 42t19 38l59 59q19 19 45 19q18 0 35 -11l80 -53q11 5 21 9t20 7l20 95q5 22 22 36.5t38 14.5h86q21 0 38.5 -15t22.5 -36l19 -95q10 -3 20 -7t21 -9l80 53q17 11 35 11q26 0 45 -19l59 -59
q17 -17 19 -39t-11 -41l-53 -80q5 -11 9 -21t7 -20l95 -19q22 -5 36.5 -22.5t14.5 -38.5v-86q0 -21 -15 -38t-36 -22l-95 -20q-3 -10 -7 -20t-9 -21l53 -80q14 -20 11.5 -41.5t-19.5 -38.5l-59 -58q-19 -19 -45 -19q-18 0 -35 11l-80 52q-21 -10 -41 -15l-19 -95
q-5 -22 -22.5 -36.5t-38.5 -14.5h-86q-21 0 -38 14t-22 37l-20 95q-20 5 -41 15l-80 -52q-17 -11 -35 -11q-26 0 -45 19l-59 58q-15 15 -18 38t10 42l53 80q-10 21 -15 41l-96 20q-22 5 -36.5 22t-14.5 38v86zM63 307l95 -19q34 -7 47 -40l14 -35q7 -17 6.5 -31.5
t-10.5 -28.5l-55 -82l61 -61l82 55q15 10 32 10t28 -6l35 -14q33 -13 40 -47l19 -95h86l20 95q4 17 13 28.5t26 18.5l35 14q11 6 28 6t32 -10l82 -55l61 61l-55 82q-10 14 -10.5 28.5t6.5 31.5l14 35q13 33 47 40l95 19v86l-95 20q-17 4 -28.5 13t-18.5 26l-14 35
q-7 17 -6.5 31.5t10.5 28.5l55 82l-61 61l-82 -55q-15 -10 -32 -10t-28 6l-35 14q-17 7 -26 18.5t-13 28.5l-20 95h-86l-19 -95q-7 -34 -40 -47l-35 -14q-11 -6 -28 -6t-32 10l-82 55l-61 -61l55 -82q10 -14 10.5 -28.5t-6.5 -31.5l-14 -35q-7 -17 -18.5 -26t-28.5 -13
l-95 -20v-86zM281 350q0 89 65 154q63 63 154 65q89 2 154 -65t65 -154t-65 -154t-154 -65q-91 2 -154 65q-65 65 -65 154zM309 350q0 -81 55 -136q56 -56 136 -55q81 2 136 55q55 54 55 136t-55 136q-55 53 -136 55q-80 1 -136 -55q-55 -55 -55 -136zM375 350q0 53 36 89
t89 36t89 -37q36 -38 36 -89q0 -52 -36 -88t-89 -36t-89 36t-36 89zM406 350q0 -20 7.5 -36.5t20.5 -29.5t30 -20.5t36 -7.5q37 -1 66 28q28 28 28 66t-28 66q-29 29 -66 28q-19 0 -36 -7.5t-30 -20.5t-20.5 -30t-7.5 -36z" />
    <glyph glyph-name="beaker_light" unicode="&#xe865;" 
d="M2 354q11 50 55 68l424 170q-12 19 -12 41q0 34 23 57l43 43q24 24 56 24t56 -24l240 -240q24 -24 23.5 -56t-23.5 -56l-43 -45q-24 -21 -55 -21q-24 0 -43 12l-168 -417q-18 -47 -68 -57q-10 -2 -18 -2h-4q-19 0 -33.5 7t-28.5 20l-398 392q-35 34 -26 84zM64 343
q-3 -18 8 -28l397 -392q10 -10 21 -10h8q19 5 24 20l146 370q-58 61 -123 85q-64 24 -146 33q-79 9 -123 23l-194 -78q-15 -6 -18 -23zM250 319q0 25 19 44t44 18t44 -18t18 -44t-18 -44t-44 -19q-14 -1 -25 4.5t-19 14.5t-13 20.5t-6 23.5zM281 319q-1 -15 9 -23t22.5 -8
t22.5 8t9 23q1 16 -9 22t-22 9q-6 1 -12 -1.5t-11 -7.5t-7.5 -11t-1.5 -11zM324 463q15 -3 35 -6.5t45 -6.5q29 -4 52.5 -6.5t40.5 -6.5q34 -8 87 -33q51 -25 98 -70l41 102l55 -55q10 -11 21 0l45 45q11 11 0 22l-242 242q-11 11 -22 0l-45 -45q-10 -13 0 -22l55 -54z
M375 131q-1 16 9 23.5t22.5 7.5t22.5 -7.5t9 -23.5q-2 -29 -32 -31q-15 -1 -22 9t-9 22zM438 272q0 33 22 56t56 22t55 -22t23 -56q1 -18 -5.5 -32t-17.5 -24t-25.5 -16t-29.5 -6q-29 -1 -56 22q-26 23 -22 56zM469 272q0 -20 14 -33t33 -14t33 14t14 33t-14 33t-33 14
t-33 -14t-14 -33zM844 772q0 33 22 56t56 22t56 -22t22 -56t-22 -56t-56 -22t-56 22t-22 56zM875 600q0 14 9 22t22 9t23 -9t9 -22t-9 -22t-23 -9t-22 9t-9 22zM875 772q0 -20 14 -33t33 -14t33 14t14 33t-14 33t-33 14t-33 -14t-14 -33z" />
    <glyph glyph-name="note_light" unicode="&#xe866;" 
d="M0 725q0 39 27 66.5t67 27.5h656q27 0 45 -18l187 -187q18 -18 18 -45v-593q0 -39 -27 -66.5t-67 -27.5h-812q-39 0 -67 28q-27 27 -27 66v749zM63 -24q0 -31 31 -31h812q31 0 31 31v562h-124q-40 0 -67 27t-27 66v125h-625q-14 0 -22.5 -9t-8.5 -22v-749zM125 53
q0 16 16 16h718q16 0 16 -16t-16 -15h-718q-16 0 -16 15zM125 147q0 16 16 16h718q16 0 16 -16t-16 -16h-718q-16 0 -16 16zM125 241q0 15 16 15h718q16 0 16 -15t-16 -16h-718q-16 0 -16 16zM125 334q0 16 16 16h718q16 0 16 -16t-16 -15h-718q-16 0 -16 15zM125 631
q0 14 9 22.5t22 8.5h219q31 0 31 -31v-187q0 -14 -9 -22.5t-22 -8.5h-219q-13 0 -22 8t-9 23v187zM188 475h156v125h-156v-125zM469 428q0 16 15 16h375q16 0 16 -16t-16 -15h-375q-15 0 -15 15zM469 522q0 16 15 16h157q15 0 15 -16t-15 -16h-157q-15 0 -15 16zM469 616
q0 15 15 15h157q15 0 15 -15t-15 -16h-157q-15 0 -15 16zM750 631q0 -25 19 -43.5t43 -18.5h125l-187 187v-125z" />
    <glyph glyph-name="truck_light" unicode="&#xe867;" 
d="M0 662q0 40 27 67t67 27h469q39 0 66 -27t27 -67v-62h125q51 0 78 -41l125 -187q16 -23 16 -53v-188q0 -39 -27 -66t-67 -27h-35q-12 -42 -45 -67.5t-76 -25.5t-76 25.5t-45 67.5h-164q-12 -42 -45 -67.5t-76 -25.5t-76 25.5t-45 67.5h-35q-40 0 -67 27t-27 66v94
q-39 0 -66.5 27t-27.5 67v343zM63 319q0 -31 31 -31h469q13 0 22 8t9 23v343q0 14 -9 23t-22 9h-469q-14 0 -22.5 -9t-8.5 -23v-343zM156 131q0 -13 9 -22t23 -9h35q11 42 45 67.5t76 26.5q21 0 40.5 -7t35.5 -20t27.5 -30.5t17.5 -36.5h164q12 42 45 67.5t76 26.5t76 -27
t45 -67h35q14 0 22.5 9t8.5 22v188q0 9 -5 17l-125 188q-9 14 -26 14h-125v-219q0 -39 -27 -66.5t-66 -27.5h-407v-94zM281 69q0 -13 5 -24.5t14 -20t20.5 -13.5t23.5 -5t23.5 5t20 14t13.5 20.5t5 23.5q-1 24 -18 44t-44 18t-44 -18t-19 -44zM688 69q0 -26 18 -44t44 -19
q13 0 24.5 5t19.5 14t13 20.5t5 23.5q0 24 -18 44t-44 18t-44 -18t-18 -44zM688 475q0 31 31 31h31q16 0 25 -13l94 -141q6 -8 6 -18v-46q0 -14 -9 -23t-22 -9h-125q-14 0 -22.5 9t-8.5 23v187zM719 288h125v46l-94 141h-31v-187z" />
    <glyph glyph-name="behance" unicode="&#xe868;" horiz-adv-x="1142" 
d="M1031 661h-285v-69h285v69zM891 423q-51 0 -82 -29t-34 -80h227q-10 109 -111 109zM900 97q18 0 35.5 4.5t32.5 13.5t26 21t16 27h123q-55 -170 -238 -170q-121 0 -190 72q-71 75 -70 194q0 116 72 193t188 77q59 0 105.5 -22t78.5 -60t48.5 -88t15.5 -107v-11.5
t-1 -14.5h-367q0 -63 32 -96.5t93 -32.5zM155 125h165q114 0 114 93q0 100 -111 100h-168v-193zM155 424h156q45 0 69.5 21t25.5 63q0 80 -106 80h-145v-164zM0 708h332q45 0 86 -7.5t71.5 -27t48.5 -53.5t18 -86q0 -101 -96 -147q64 -17 96.5 -64t32.5 -114
q0 -53 -20.5 -91.5t-55.5 -63.5t-79.5 -37t-92.5 -12h-341v703z" />
    <glyph glyph-name="bitbucket" unicode="&#xe869;" horiz-adv-x="785" 
d="M455 371q4 -34 -28 -57t-63 -3q-16 7 -24 22.5t-8.5 32.5t7 32.5t24.5 22.5q15 8 31 7.5t29.5 -8t22.5 -20.5t9 -29zM517 382q-8 61 -63 92t-110 7q-35 -16 -56.5 -49.5t-19.5 -71.5q1 -26 12.5 -47.5t31.5 -39.5q41 -36 92 -32q50 4 85 48q34 43 28 93zM650 685
q-11 15 -31 25t-32 12l-40 7q-81 14 -159.5 13.5t-156.5 -14.5l-37 -7q-13 -2 -30 -11.5t-28 -24.5q16 -16 42 -26t41 -12l49 -6q64 -8 126 -8.5t124 7.5l50 7q15 2 40 12t42 26zM682 107q-2 -7 -4.5 -18.5t-4.5 -24l-4 -25t-3 -21.5q-2 -18 -16 -38.5t-33 -31.5
q-24 -14 -50.5 -23.5t-55.5 -16.5q-58 -13 -111.5 -12.5t-113.5 10.5q-25 5 -45 10t-43 15t-41 25t-29 34q-7 26 -15 66.5t-16 95.5l3 9l10 5q125 -83 283 -83t283 83q10 -1 12 -8t0.5 -17t-4 -19.5t-2.5 -14.5zM783 644l-23.5 -138.5l-38.5 -227.5q-8 -27 -26.5 -43
t-43.5 -28q-143 -70 -340 -49q-139 15 -220 78q-11 8 -19 23.5t-10 29.5l-6 42l-31 173l-6.5 38.5t-6.5 44.5l-6 45.5t-6 42.5q2 14 10 27t17 21t26 17t25 12l27 10q71 26 175 36q212 21 377 -28q87 -26 120 -68q9 -11 8.5 -28t-2.5 -30z" />
    <glyph glyph-name="cc" unicode="&#xe86a;" horiz-adv-x="1142" 
d="M554 288q-8 -90 -55 -140t-120 -50q-45 0 -81 16.5t-61 48t-38.5 76t-13.5 99.5q0 111 52 175q54 66 130 66q84 1 130.5 -48t53.5 -139h-113q-3 36 -20 55.5t-46 19.5q-65 -2 -67 -133q0 -24 2.5 -46t10.5 -39.5t22 -28t37 -10.5q53 0 61 78h116zM950 288
q-7 -90 -54 -140t-120 -50q-45 0 -81 16.5t-61 48t-38 76t-13 100.5q0 110 52 174q54 66 130 66q82 1 129 -48t54 -139h-114q-2 36 -19 55.5t-45 19.5q-32 -1 -50 -34t-17 -99q0 -24 2.5 -46t10 -39.5t21.5 -28t37 -10.5q27 0 43 21t18 57h115zM1036 354q1 58 -1.5 100.5
t-7.5 70.5q-9 56 -34 90q-4 6 -7 8l-21 14q-25 17 -121.5 26.5t-267.5 9.5q-350 0 -396 -36l-10 -6q-13 -7 -20 -16q-25 -33 -33 -89q-7 -55 -9 -172q0 -117 9 -172q9 -56 33 -89q6 -8 15 -12.5t15 -10.5q24 -18 133 -27t263 -9q171 0 267 9.5t122 26.5l21 14q5 4 7 9
q27 34 34 89q4 28 6.5 71t2.5 101zM1143 779v-857h-1143v857h1143z" />
    <glyph glyph-name="codeopen" unicode="&#xe86b;" 
d="M121 198l336 -224v200l-186 124zM86 278l108 72l-108 72v-144zM543 -26l337 224l-151 100l-186 -124v-200zM500 248l152 102l-152 102l-152 -102zM271 402l186 124v201l-336 -225zM806 350l108 -72v144zM729 402l151 100l-337 225v-201zM1000 198q0 -23 -19 -36
l-457 -304q-24 -16 -48 0l-457 304q-19 13 -19 36v304q0 23 19 36l457 305q24 16 48 0l457 -305q19 -13 19 -36v-304z" />
    <glyph glyph-name="css3" unicode="&#xe86c;" 
d="M154 779h839l-148 -744l-449 -148l-389 148l39 198h166l-16 -82l235 -89l272 89l38 190h-675l33 165h674l22 107h-674z" />
    <glyph glyph-name="delicious" unicode="&#xe86d;" horiz-adv-x="857" 
d="M821 350h-392v393h-268q-52 0 -89 -37q-36 -36 -36 -88v-268h393v-392h267q52 0 89 37q36 35 36 87v268zM857 82q0 -67 -47 -112q-48 -48 -114 -48h-535q-68 0 -114 48q-47 47 -47 112v536q0 66 47 113q48 48 114 48h535q67 0 114 -48q47 -49 47 -113v-536z" />
    <glyph glyph-name="digg" unicode="&#xe86e;" horiz-adv-x="1142" 
d="M960 236v206h69v-206h-69zM846 144h183v-46h-183v-91h297v526h-297v-389zM617 236v206h69v-206h-69zM503 144h183v-46h-183v-91h297v526h-297v-389zM457 693v-114h-114v114h114zM457 533v-389h-114v389h114zM114 236v206h69v-206h-69zM183 533h-183v-389h297v549h-114
v-160z" />
    <glyph glyph-name="dribbble" unicode="&#xe86f;" horiz-adv-x="857" 
d="M571 13q-23 134 -78 278h-1l-1 -1q-5 -2 -10 -3.5t-14 -5.5t-22 -10.5l-34 -16.5l-39.5 -22t-37.5 -24q-36 -25 -73 -64t-57 -82l-9 6q102 -83 234 -83q37 0 72 7t70 21zM468 352q-10 25 -29 62q-172 -52 -376 -52v-12q0 -69 24 -132t69 -112q28 49 69 93t80 69l73 45
t55 27l21 7q2 1 7 2t7 3zM409 470q-34 60 -68 112.5t-69 98.5q-78 -36 -130.5 -103.5t-71.5 -152.5q169 0 339 45zM790 292q-116 33 -228 16q25 -67 42.5 -132t28.5 -130q63 42 104.5 106t52.5 140zM670 625q-103 91 -241 91q-46 0 -87 -10q37 -48 71 -101t66 -113
q39 15 73 34t54 34t36 32t21 23zM795 354q-1 128 -83 229l-1 -1q-2 -4 -5 -7l-6 -6l-24 -25q-24 -26 -64.5 -53t-104.5 -53l25 -53l3 -10q1 -7 5 -9l41 4q36 3 70 2t61.5 -4t47.5 -7t29 -6zM857 350q0 -87 -34 -165t-93 -137t-136.5 -93t-164.5 -33q-58 1 -111.5 15
t-104.5 43q-50 28 -89 67.5t-66 87.5t-42 102t-16 113t13 112.5t45 102.5q61 99 154.5 156.5t216.5 57.5t215 -58q93 -59 156 -156q32 -49 44 -102.5t13 -112.5z" />
    <glyph glyph-name="deviantart" unicode="&#xe870;" horiz-adv-x="571" 
d="M571 681l-169 -325l14 -17h155v-232h-282l-25 -16l-79 -152l-17 -17h-168v169l169 325l-13 17h-156v231h283l25 17l79 152l17 17h167v-169z" />
    <glyph glyph-name="dropbox" unicode="&#xe871;" 
d="M224 456l276 -171l-191 -159l-273 178zM775 146v-60l-274 -163v-1v1l-1 -1v1l-273 163v60l82 -54l191 159v1l1 -1v1v-1l192 -159zM309 784l191 -159l-276 -169l-188 150zM776 456l188 -152l-273 -178l-191 159zM691 784l273 -178l-188 -150l-276 169z" />
    <glyph glyph-name="drupal" unicode="&#xe872;" horiz-adv-x="857" 
d="M651 -34q-3 10 -13 3q-17 -13 -48.5 -22t-73.5 -10q-73 0 -107 28q-3 2 -8.5 2t-13.5 -7q-4 -3 -4 -9t4 -11q16 -14 36 -21t41.5 -9t43 -1.5t40.5 1.5q23 2 47 12t36 16t16 12q7 6 4 16zM630 29q-11 26 -22 34q-14 9 -43 9q-26 0 -39 -6q-8 -4 -19 -11t-25 -20
q-15 -14 -7 -25q6 -4 10 -2t18 13q7 5 11.5 8.5t12.5 8.5q8 3 15 5t21 2q23 -1 31.5 -7.5t13.5 -16.5t7 -11t7 0q13 7 8 19zM828 186q0 17 -6.5 38t-24.5 32q-6 4 -13.5 6.5t-17 1.5t-22.5 -6t-31 -17l-36 -23l-36 -24q-37 -24 -56 -23q-21 -1 -46 16l-55 37.5t-65 37.5
t-76 17q-65 -2 -110 -44q-45 -43 -47 -99q-2 -63 41 -92q16 -11 35 -16t58 -4q16 0 35 5t38.5 13t38.5 18t36 21l34 20.5t33 19t29.5 13.5t22.5 4q15 -2 36 -18.5t40 -36.5t38 -38t31 -17q20 -2 33 7t31 35q7 12 13.5 26.5t10.5 30.5t6 31.5t2 27.5zM857 275q1 -91 -33 -170
t-94 -130q-60 -52 -135 -83.5t-162 -30.5q-86 0 -164 32t-138 88.5t-95.5 133.5t-35.5 168q0 76 22 139t56 105l43 52t44 39t36.5 25.5t23.5 14.5l59 30q11 6 26.5 17l33.5 25q20 16 33 40.5t16 69.5q71 -85 104 -108q13 -8 31 -17.5t42 -20.5l42.5 -19.5t29.5 -16.5l22 -14
q5 -3 13.5 -10l19 -16l22 -19.5l21.5 -20.5q20 -20 42 -53t38 -68t26.5 -83t10.5 -99z" />
    <glyph glyph-name="facebook" unicode="&#xe873;" horiz-adv-x="571" 
d="M535 696h-87q-48 0 -65 -20t-17 -60v-106h164l-22 -165h-142v-423h-171v423h-142v165h142v122q0 105 58 161.5t155 56.5q42 0 73 -1.5t54 -5.5v-147z" />
    <glyph glyph-name="flickr" unicode="&#xe874;" horiz-adv-x="857" 
d="M696 779q67 0 114 -48q47 -49 47 -113v-536q0 -67 -47 -112q-48 -48 -114 -48h-535q-68 0 -114 48q-47 47 -47 112v536q0 66 47 113q48 48 114 48h535zM390 350q0 49 -35 84t-84 34q-24 0 -45.5 -9t-37.5 -25t-25.5 -37.5t-9.5 -46.5q-1 -51 35 -84q35 -32 83 -34
q45 -1 84 34q37 34 35 84zM704 350q0 50 -34 84q-35 35 -84 34q-25 0 -46.5 -9t-37.5 -25t-25 -37.5t-9 -46.5q0 -26 9 -47t25 -37t37.5 -25t46.5 -9q49 -1 84 34q34 34 34 84z" />
    <glyph glyph-name="foursquare" unicode="&#xe875;" horiz-adv-x="714" 
d="M579 716q2 13 -5.5 22.5t-19.5 9.5h-397q-13 0 -21.5 -10t-8.5 -20v-615q0 -5 3 0l162 196q13 15 22 19t26 4h134q12 0 20 8t11 17q7 36 11.5 62.5t8.5 43.5q2 12 -6 22.5t-21 10.5h-164q-16 0 -26.5 11t-10.5 27v23q0 16 11 26.5t26 10.5h193q10 0 20 7t11 17zM685 732
q-5 -20 -12 -57.5t-18 -91.5l-39 -195q-9 -44 -13.5 -68t-5.5 -29q-4 -12 -5 -18t-8 -18q-9 -16 -23 -26t-45 -10h-151q-8 0 -12 -6q-6 -6 -238 -274q-6 -7 -15 -11t-18 -5.5t-16.5 -0.5t-10.5 4q-30 12 -30 54v786q0 31 21 58q20 26 67 26h495q54 0 71.5 -30t5.5 -88z
M597 291l19 97l18.5 93l20.5 102l18.5 91l11.5 58z" />
    <glyph glyph-name="git" unicode="&#xe876;" 
d="M332 5q0 56 -92 56q-88 0 -88 -58q0 -56 96 -56q84 0 84 58zM299 427q0 34 -17 56.5t-49 22.5q-69 1 -69 -81q0 -75 69 -75q66 0 66 77zM449 495q-10 -4 -21 -7l-23 -6q9 -24 9 -47q0 -70 -41 -119.5t-110 -63.5q-22 -5 -33 -15t-11 -33q0 -13 7.5 -22.5t19.5 -16
t28 -11.5t34 -8q24 -7 48.5 -15t44 -21.5t32 -34.5t12.5 -55q2 -169 -203 -169q-36 0 -72 7t-65.5 23.5t-48 45t-18.5 71.5q0 91 102 124v3q-38 23 -38 70q0 61 35 76v3q-41 13 -66 60q-13 23 -20 46.5t-7 46.5q-1 75 53 129q53 53 131 51q53 0 100 -26q52 0 121 26v-112z
M503 116q1 13 1.5 31t0.5 43v340q0 26 -0.5 44t-1.5 28h124q-3 -20 -3 -69v-343q0 -49 3 -74h-124zM962 130q-40 -22 -97 -22q-35 0 -60 12t-39 27q-15 16 -22 44q-4 15 -6.5 27t-3.5 24t-1.5 26t-0.5 32v196h1v2h-11q-8 0 -10 1q-12 0 -33 -3v106h54v42q0 15 -1 27.5
t-3 22.5h127q-3 -23 -3 -92h95v-106q-8 0 -24 1t-24 1h-47v-204q0 -73 48 -73q35 0 61 19v-110zM641 768q0 -16 -6 -31t-16 -26t-24 -18t-30 -7q-32 1 -54 25t-23 57q0 33 22 57t55 24q33 1 54.5 -24t21.5 -57z" />
    <glyph glyph-name="github" unicode="&#xe877;" horiz-adv-x="928" 
d="M357 171q1 -15 -3.5 -33.5t-13.5 -35t-22.5 -27.5t-31.5 -11q-19 0 -33 11t-23 27.5t-13 35t-3 33.5q-1 15 3 33.5t13 35t23 28t33 11.5q26 0 40 -19q15 -21 24 -43t7 -46zM714 171q1 -15 -3.5 -33.5t-13.5 -35t-22.5 -27.5t-31.5 -11q-19 0 -33 11t-23 27.5t-13 35
t-3 33.5q-1 15 3 33.5t13 35t23 28t33 11.5q26 0 40 -19q15 -21 24 -43t7 -46zM804 171q1 66 -39 114q-39 47 -104 47q-24 0 -109 -12q-40 -6 -88 -6t-87 6q-86 12 -109 12q-66 0 -104 -47q-39 -48 -39 -114q-1 -49 17.5 -85t45.5 -58q28 -23 68 -32q42 -11 78.5 -16
t82.5 -5h94q46 0 82.5 4.5t78.5 16.5q60 16 95 58t37 117zM929 270q0 -117 -34 -185q-22 -43 -59 -73.5t-79 -47.5q-41 -16 -95 -27q-53 -10 -96 -12t-93 -3q-22 0 -41.5 0.5t-37.5 1.5q-36 2 -82 7t-85 17q-62 19 -112.5 49.5t-79.5 87.5q-35 67 -35 185q0 133 76 221
q-15 45 -15 95q0 65 28 121q62 0 106 -22t106 -69q42 10 84.5 15t87.5 5q83 0 157 -18q58 46 104 67q45 20 105 22q29 -58 29 -121q0 -49 -15 -94q76 -88 76 -222z" />
    <glyph glyph-name="gittip" unicode="&#xe878;" horiz-adv-x="857" 
d="M431 123l196 264q8 12 13 33q2 10 1.5 22.5t-4.5 25.5t-12.5 24.5t-21.5 19.5q-19 11 -36.5 13t-32.5 -2t-27.5 -13t-21.5 -19q-19 -22 -54 -22q-34 0 -53 22q-8 10 -21 19t-28.5 13.5t-33 2.5t-35.5 -14q-21 -14 -29.5 -32.5t-9 -36.5t4.5 -33t11 -23zM857 350
q0 -87 -34 -165t-93 -137t-136.5 -93t-164.5 -33q-58 1 -111.5 15t-104.5 43q-50 28 -89 67.5t-66 87.5t-42 102t-16 113t13 112.5t45 102.5q61 99 154.5 156.5t216.5 57.5t215 -58q93 -59 156 -156q32 -49 44 -102.5t13 -112.5z" />
    <glyph glyph-name="google" unicode="&#xe879;" horiz-adv-x="857" 
d="M429 411h404q7 -35 7 -71q1 -90 -29 -167t-84.5 -133t-130.5 -87.5t-167 -30.5q-88 1 -167 34t-137 90t-91 136.5t-34 167.5q0 88 34 167.5t91 136.5t137 91t167 34q166 0 287 -113l-117 -112q-67 67 -170 67q-54 0 -102 -21.5t-84.5 -58.5t-58 -86.5t-21.5 -104.5
t21.5 -104.5t58 -86.5t84.5 -58.5t102 -21.5q63 0 107.5 20.5t73.5 49t43.5 60t18.5 55.5h-243v147z" />
    <glyph glyph-name="gplus" unicode="&#xe87a;" horiz-adv-x="1285" 
d="M802 341q0 -87 -28.5 -160.5t-80 -126.5t-124 -82.5t-160.5 -29.5q-85 0 -159.5 32t-130 87.5t-87.5 129.5t-32 159t32 159.5t87.5 130t130 87.5t159.5 32q159 0 274 -107l-111 -107q-63 61 -163 63q-51 1 -97 -19.5t-80.5 -56t-55 -83t-20.5 -99.5q0 -53 20.5 -100
t55 -82.5t80.5 -56t97 -19.5q60 1 102.5 20.5t70.5 46.5t42 56.5t17 52.5h-232v141h386q7 -34 7 -68zM1286 409v-118h-117v-116h-117v116h-117v118h117v116h117v-116h117z" />
    <glyph glyph-name="gwallet" unicode="&#xe87b;" 
d="M246 475q18 0 29 -14q150 -206 202 -432h-249q-35 124 -87 227t-118 191q-7 8 -1.5 18t16.5 10h208zM558 276q-14 -56 -31 -110.5t-39 -108.5q-44 173 -143 331q11 62 17.5 124.5t7.5 126.5q60 -96 106.5 -186t81.5 -177zM613 671q132 -181 215.5 -389t102.5 -431h-252
q-23 369 -308 820h242zM1000 350q0 -236 -56 -452q-38 310 -201 603q-13 166 -59 326q-2 9 3 16t15 7h200q26 0 34 -26q64 -226 64 -474z" />
    <glyph glyph-name="hacker_news" unicode="&#xe87c;" horiz-adv-x="857" 
d="M452 290l148 278h-63l-87 -174l-13.5 -26.5t-11.5 -24.5l-23 51l-87 174h-67l147 -275v-181h57v178zM857 82q0 -67 -47 -112q-48 -48 -114 -48h-535q-68 0 -114 48q-47 47 -47 112v536q0 66 47 113q48 48 114 48h535q67 0 114 -48q47 -49 47 -113v-536z" />
    <glyph glyph-name="html5" unicode="&#xe87d;" horiz-adv-x="785" 
d="M631 517l9 98h-494l26 -298h342l-12 -128l-110 -29l-110 29l-7 78h-97l12 -155l202 -55h2l200 55l28 304h-359l-8 101h376zM0 779h786l-72 -802l-322 -90l-321 90z" />
    <glyph glyph-name="instagramm" unicode="&#xe87e;" horiz-adv-x="857" 
d="M571 350q0 58 -41 101q-41 42 -101 42q-61 0 -101 -42t-42 -101t42 -101q43 -42 101 -42q57 0 101 42q43 41 41 101zM648 350q1 -91 -64 -156t-155 -64q-92 2 -156 64q-65 64 -64 156q2 94 64 156t156 64q93 1 155 -64q31 -32 47.5 -71t16.5 -85zM709 579q0 -21 -15 -36
t-37 -15t-36 15t-15 36t15 36t36 15t37 -15t15 -36zM386 702h-59q-10 0 -23.5 -0.5t-30.5 -1.5q-34 -2 -57 -5t-40 -11q-28 -12 -49.5 -32.5t-32.5 -48.5q-7 -16 -10.5 -40t-5.5 -58q-1 -17 -1.5 -30t0.5 -23q1 -19 0 -59t0 -43t0 -43t0 -59v-23t0.5 -29.5t2 -31t4.5 -27.5
l10 -40q25 -58 82 -81q16 -6 40 -11t57 -5h30t24 -1q21 -2 59 0t43 0q4 -2 42 0q37 1 59 0q11 -1 24.5 -1t29.5 2q32 4 58 5t39 11q28 11 50 32t32 49q11 30 16 98q1 17 1.5 30t-0.5 23q-1 19 0 59t0 43t0 43t0 59v23t-0.5 29.5t-2 31t-4.5 27.5l-10 40q-11 28 -32 49
t-50 32q-16 6 -39 11t-58 5q-17 0 -30.5 0.5t-23.5 1.5q-19 1 -59 0q-41 -2 -42 0h-43zM857 350q0 -128 -3 -177q-5 -117 -69 -180t-179 -68q-50 -3 -177 -3q-128 0 -177 3q-117 6 -180.5 68t-68.5 180q-3 49 -3 177q0 127 3 177q5 117 68.5 180.5t180.5 68.5q49 3 177 3
q127 0 177 -3q117 -6 179.5 -68.5t68.5 -180.5q3 -50 3 -177z" />
    <glyph glyph-name="ioxhost" unicode="&#xe87f;" horiz-adv-x="1142" 
d="M816 386q0 -20 -13 -34t-35 -14h-391q-20 0 -34 14t-14 34t14 34t34 14h391q21 0 35 -14t13 -34zM936 386q0 50 -13 95h-548q-20 0 -34 14t-14 33q0 20 14 34t34 14h507q-49 81 -130.5 126.5t-180.5 47.5q-73 1 -140 -28.5t-117 -79.5t-79 -116.5t-27 -139.5
q1 -24 3.5 -48t8.5 -47h548q24 0 35.5 -15t11.5 -33t-11.5 -33t-35.5 -15h-506q24 -39 57.5 -71t73.5 -54.5t85.5 -35t93.5 -12.5q75 0 141 28.5t115.5 78t78.5 115.5t29 142zM1143 528q0 -19 -14 -33t-34 -14h-73q9 -48 9 -95t-9.5 -92t-26.5 -87t-42 -79t-56 -67
t-68.5 -54.5t-79 -42.5t-86.5 -28t-91 -9q-69 2 -131 19.5t-119 53.5q-113 73 -168 195h-106q-20 0 -34 14t-14 34t14 34t34 14h74q-5 23 -7.5 47t-2.5 48q0 94 37 178t98 147t146 98.5t179 36.5q137 0 250 -75q112 -75 168 -195h105q20 0 34 -14t14 -34z" />
    <glyph glyph-name="joomla" unicode="&#xe880;" horiz-adv-x="857" 
d="M597 251l-89 -89l-101 -102q-35 -36 -84.5 -48t-95.5 -1q-5 -19 -15.5 -35.5t-25.5 -28.5t-33.5 -18.5t-38.5 -6.5q-47 0 -80 34q-34 36 -34 80q0 42 25 72.5t63 39.5q-12 48 1 96.5t49 84.5l7 7l84 -85l-6 -6q-21 -21 -21.5 -50t20.5 -50t50.5 -21t49.5 21l101 102
l90 89zM414 625l-85 -85l-7 7q-21 21 -50 21t-49 -21t-21 -49.5t21 -50.5l190 -190l-84 -85l-90 89l-101 102q-38 38 -50 89.5t2 99.5q-20 4 -36 14.5t-28 25.5t-18.5 33.5t-6.5 38.5q0 47 34 81t81 34q21 0 40 -7.5t34 -20.5t25.5 -30.5t13.5 -37.5q48 11 94.5 -1.5
t83.5 -49.5zM857 36q0 -46 -33 -80t-81 -34q-21 0 -39.5 7t-33.5 19.5t-25.5 29.5t-14.5 36q-24 -8 -50 -9t-51.5 4t-48 17.5t-40.5 33.5l-6 7l84 85l7 -7q20 -20 49 -20t50 20t21 50t-21 50l-17 16l-174 174l85 85l174 -174l16 -17q35 -37 48.5 -85t1.5 -94
q21 -3 39.5 -13.5t31.5 -25.5t20.5 -34.5t7.5 -40.5zM856 664q0 -21 -7.5 -40.5t-21 -35t-31.5 -25.5t-39 -13q14 -48 -0.5 -97.5t-48.5 -89.5l-6 -7l-85 85l7 7q21 21 21 49.5t-21 49.5t-49.5 21t-49.5 -21l-191 -191l-85 85l90 89l85 85l16 17q18 19 40.5 31.5t47.5 18.5
t50.5 5.5t49.5 -7.5q6 42 37.5 70t76.5 29q47 0 81 -34q33 -33 33 -81z" />
    <glyph glyph-name="jsfiddle" unicode="&#xe881;" horiz-adv-x="1142" 
d="M1005 419q61 -25 100 -81q38 -54 38 -124q-2 -93 -66 -156q-65 -64 -159 -64h-691q-48 0 -88 18.5t-73 50.5q-66 64 -66 157q0 61 31 113t82 82q-7 21 -7 46q0 64 46 109q46 44 111 46q52 0 96 -33q43 87 124 139q42 26 86.5 38.5t95.5 13.5q69 1 130.5 -26t108 -73
t74 -107t27.5 -129v-20zM261 271q0 -67 47 -108q46 -40 116 -40q76 0 134 56l-26 31l-25 28q-38 -36 -80 -36q-31 0 -52.5 19t-21.5 48q-1 30 21.5 49t51.5 19q38 0 68 -25t56 -59l37.5 -46t44 -42t54 -30.5t67.5 -11.5q69 0 115 40t46 106q-2 69 -47 107q-48 40 -115 40
q-78 1 -135 -54l52 -60q38 35 79 35q29 0 51.5 -18t22.5 -47q-1 -32 -21.5 -51t-51.5 -19q-49 0 -86 42l-37 42l-39 46q-28 33 -68.5 58.5t-94.5 25.5q-69 0 -115 -39q-47 -39 -48 -106z" />
    <glyph glyph-name="lastfm" unicode="&#xe882;" 
d="M721 457q0 -4 6 -23q10 -29 36 -46q13 -8 24.5 -12t31.5 -9q181 -52 181 -185q0 -81 -59 -135q-57 -53 -142 -53q-51 0 -89 20.5t-67 55.5q-21 25 -35 49t-30 58q-17 34 -24 57l-22 60l-20 53q-17 45 -34.5 74t-41.5 54t-58 35.5t-79 11.5q-40 1 -78 -18t-67 -49.5
t-46 -69.5t-16 -78q2 -45 16 -83.5t43 -72.5q58 -67 147 -67q99 0 144 53q30 34 46 65l47 -85q-8 -20 -24 -39q-37 -43 -90.5 -63t-125.5 -21q-62 -1 -116 25t-94 70t-62.5 100.5t-22.5 116.5q1 60 25 115t65 98t95 68.5t114 25.5q49 0 88.5 -10.5t70 -29t53 -44t39.5 -55.5
q16 -29 33 -65t28 -69t28 -73l31 -71q52 -112 130 -112q45 0 77 27t32 72q0 24 -10.5 39.5t-28.5 26t-40.5 18l-46.5 15.5t-48.5 18.5t-45.5 28.5t-36.5 45.5t-21.5 69.5q-1 5 -1.5 9t-0.5 9q0 62 49 107q25 23 52.5 34.5t58.5 9.5q21 -1 37 -2.5t29.5 -5.5t25.5 -11t25 -19
q4 -3 9.5 -9.5t10.5 -14l10 -15t8 -10.5l-72 -55q-15 27 -30 39q-14 12 -55 12q-27 0 -46 -18t-20 -47z" />
    <glyph glyph-name="linux" unicode="&#xe883;" horiz-adv-x="857" 
d="M370 621q-6 -1 -9 -6t-4 -5q-3 -2 -3 2q0 8 10 9h6zM419 613q-3 -1 -7 4t-10 2q14 6 18 -1q2 -4 -1 -5zM223 375q-5 0 -6.5 -8.5t-8.5 -15.5q-4 -6 0 -7q2 0 7 4t7 10q0 5 2 7.5t1 4.5v2l-1 1q-1 1 -1 2zM700 174q0 11 -31 24l4 15q5 17 5 28v22q1 3 -2 12t-3 12t-2 14
t-4 14q-4 25 -26 58q-21 32 -40 42q7 -5 14.5 -17t17.5 -30q48 -90 30 -155q-6 -22 -28 -23q-17 -2 -21 10q-2 6 -3 18t-2 29t-2 32t-4 28q-5 21 -11 38t-11 25l-9 14q-4 6 -7 8t-4 4q-7 34 -17 58q-9 23 -17 31t-13 19t-8 22.5t3 29.5t2 27t-24 14q-5 1 -11.5 4l-13.5 6
t-12.5 6t-7.5 3q-3 1 -5 9.5t-0.5 19t7 19.5t16.5 10q10 1 17.5 -4t11.5 -12.5t4.5 -16.5t-2.5 -16q-6 -10 -1 -15t17 0q7 1 7 20v21q-5 26 -13 38t-19 15l-15 4q-60 -5 -50 -74q0 -9 -1 -9q-5 4 -12 5t-14 1h-12t-5 3q0 31 -9 50t-25 19q-15 0 -23 -16t-10 -33
q0 -5 1.5 -14t4.5 -17.5t6 -14t6 -3.5q6 2 8.5 7.5t-3.5 4.5q-4 0 -8 8t-6 19q0 12 5 20.5t19 8.5q8 0 12.5 -7.5t6 -15.5t1.5 -15.5v-7.5q-13 -10 -17 -16q-5 -7 -16 -13t-11 -7q-7 -8 -9 -16t4 -10q9 -5 14 -10.5t9.5 -10t10.5 -8t19 -3.5q26 -1 57 8q1 1 13 4t19 6l17 7
q11 5 12 10q5 8 11 5q2 -2 3.5 -8.5t-11.5 -8.5q-13 -4 -31 -12l-25 -11l-22.5 -8.5t-17.5 -5.5q-7 -1 -18 -0.5t-26 2.5q-5 1 -5 -1t10 -10q14 -15 37 -13q10 0 20 3.5t20 8.5l49 26q5 3 10 1t5 -6q0 -1 -1 -2l-2 -3l-3 -3l-5 -2q-3 -1 -5 -3t-5 -3l-6 -2q-8 -4 -17.5 -11
l-19.5 -14.5t-20 -14t-18 -9.5t-14.5 -4t-13 3.5t-14.5 14t-20 27.5q-12 17 -14 12q-1 -1 -1 -6q0 -15 -8 -30.5l-16 -31.5t-11.5 -33t5.5 -35q-12 -3 -35 -50q-11 -23 -17.5 -43t-8.5 -36q-1 -5 -1 -14.5v-23.5q0 -29 -3 -33q-5 -14 -16 -2q-18 17 -20 53q-1 13 2 31
q1 10 -1 10l-2 -3q-20 -36 6 -92q2 -6 14 -16l13 -11q5 -7 20 -19.5l38 -31.5l52 -42q7 -7 9 -16.5t-1 -18.5t-10.5 -15.5t-20.5 -7.5q2 -4 6 -10t10 -14q12 -16 15 -31t4 -39q26 14 4 51q-2 5 -6 9t-5 7l-1 3q2 3 7 6t11 -2q26 -29 93 -20q73 9 99 48q13 21 19 17.5
t5 -29.5q0 -15 -13 -51q-5 -13 -3 -21t14 -8q1 5 2.5 15.5t5.5 27.5t5.5 29t1.5 20q1 9 -2 28t-5 40t-0.5 39.5t12.5 26.5q9 10 29 10q0 17 11.5 25.5t26.5 10t30.5 -2t24.5 -10.5zM349 636q2 9 -1 17t-6 8q-5 2 -5 -4q1 -3 2 -3q5 0 4 -9q-2 -11 5 -11q1 0 1 2zM583 526
q-2 7 -11 9t-13 8q-5 4 -6.5 8t-5.5 1q-3 -5 -1.5 -11.5t5.5 -12.5t10 -11.5t12 -6.5q5 0 8 5t2 11zM484 645q0 10 -4 14t-8 5t-6.5 -0.5t-0.5 -2.5l3 -2q8 -2 10 -17q0 -2 5 1q1 1 1 2zM514 775q0 5 -4 4.5t-8 5.5q-9 7 -13.5 7.5t-6 -3t-1 -8t0.5 -6.5q-5 -5 -6 -11.5
t5 -4.5l6 5q6 4 9 5q0 -1 8 1.5t10 4.5zM829 26q11 -6 18 -13t6 -13q-1 -7 -1 -12t-9 -13t-13 -10t-17 -11q-14 -9 -17 -9q-5 0 -18 -9t-15 -7q-11 -6 -23.5 -14t-24.5 -17l-23.5 -18.5t-18.5 -17.5q-10 -10 -38 -11q-31 -2 -50 8q-11 6 -16 13.5l-9.5 14t-12.5 11.5t-26 5
h-104q-11 0 -19 -0.5t-13 -1.5q-21 0 -35.5 -4.5t-26 -11.5t-20 -14t-17.5 -11q-14 -8 -30 -6q-14 0 -62 17l-43.5 14.5t-37.5 9.5l-57 10q-18 3 -31.5 9.5t-18.5 15.5q-5 12 4 37l10 30q1 10 -2 22t-5.5 23.5t-2.5 20.5t6 15q8 7 31 8t34 6q17 10 23 20t7 28
q12 -41 -18 -59q-19 -11 -46 -8q-20 1 -24 -6q-7 -7 3 -32l4 -10q5 -11 6 -14.5t1 -16.5q1 -7 -8 -27q-9 -19 -8 -27t20 -14q6 -2 18 -4.5t29 -6.5l56 -11q7 -2 17 -4.5t24 -7.5q54 -18 77 -15q25 3 36 15t13 27.5t-3 32t-12 29.5l-11 19q-31 56 -55.5 88.5t-38.5 46.5
q-38 42 -63 23q-6 -5 -9 8q-1 5 -1 10v11q2 24 13 42.5t19 36.5l14 40l9 24.5t8 18.5l17 35q5 10 10.5 17.5t10.5 12.5q63 81 70 108q-7 63 -9 173q-1 51 13 85t59 58q22 12 58 12q30 1 59 -7t50 -24q31 -22 51 -67q10 -22 14 -42.5t3 -40.5q-3 -54 16 -119q20 -64 75 -122
q29 -32 55 -91t33 -106q8 -44 0.5 -65.5t-15.5 -25.5q-6 -1 -12.5 -10t-15.5 -19.5t-22.5 -19t-34.5 -8.5q-30 3 -37 19l-7 12q-6 10 -5 11q-9 16 -18 16.5t-14.5 -9.5t-6.5 -29t5 -43q10 -38 0 -108q-4 -28 5 -45.5t24 -24.5t33.5 -3.5t35.5 18.5q17 14 29.5 23t20.5 14
t23 11t35 13q32 11 43.5 21t9 18t-14.5 15.5t-27 13.5q-16 5 -24 18.5t-10.5 28.5t-0.5 28.5t7 18.5q1 -28 8 -44.5t16 -26t18 -14.5t15 -9z" />
    <glyph glyph-name="linkedin" unicode="&#xe884;" horiz-adv-x="857" 
d="M195 501v-552h-184v552h184zM207 672q1 -42 -28.5 -68.5t-75.5 -26.5h-1q-46 0 -74 27t-28 68t29 68q28 27 75 27q46 0 74.5 -26.5t28.5 -68.5zM857 -51h-183v295q0 60 -23 92.5t-71 32.5q-35 0 -58.5 -19t-35.5 -48q-4 -8 -5 -19.5t-1 -25.5v-308h-184q1 112 1 201.5
v158.5v165l-1 27h184v-80h-1q11 18 23 31t31 29t49 24.5t64 8.5q48 0 86.5 -15.5t66.5 -47t43 -78.5t15 -108v-316z" />
    <glyph glyph-name="maxcdn" unicode="&#xe885;" 
d="M882 -6h-186l99 463q7 32 -8 50t-46 18h-95l-114 -531h-186l114 531h-160l-114 -531h-186l114 531l-85 182h712q57 0 105.5 -22t82.5 -64q33 -40 45 -94t0 -108z" />
    <glyph glyph-name="meanpath" unicode="&#xe886;" horiz-adv-x="857" 
d="M732 317q0 -14 -8 -21.5t-21 -7.5h-113q-13 0 -21 7t-8 22v63q0 14 8 21.5t21 7.5h113q14 0 21.5 -8t7.5 -21v-63zM458 391q0 30 -18 48t-48 18h-74q-38 0 -53 -29q-17 29 -54 29h-73q-29 0 -47 -18t-18 -48v-139q0 -12 11 -12h31q12 0 12 12v128q0 14 8 21.5t21 7.5h53
q13 0 21 -8t8 -21v-128q0 -12 11 -12h31q12 0 12 12v128q0 14 8 21.5t21 7.5h54q13 0 21 -8t8 -21v-128q0 -12 12 -12h30q12 0 12 12v139zM787 391q0 30 -19 48t-48 18h-147q-29 0 -47.5 -18t-18.5 -48v-228q0 -12 12 -12h31q11 0 11 12v100q18 -23 53 -23h106q30 0 48.5 18
t18.5 47v86zM857 51q0 -53 -38 -91t-91 -38h-598q-54 0 -92 38t-38 91v598q0 54 38 92t92 38h598q53 0 91 -38t38 -92v-598z" />
    <glyph glyph-name="openid" unicode="&#xe887;" 
d="M606 850v-856l-152 -72q-95 7 -177.5 36t-144 73t-97 100t-35.5 116q0 58 33.5 112t91 97.5t135.5 73.5t168 39v-96q-121 -21 -199 -84t-78 -142q0 -84 86 -149q85 -64 217 -81v759zM979 525l21 -217l-293 63l82 47q-65 38 -156 55v96q155 -20 268 -88z" />
    <glyph glyph-name="pagelines" unicode="&#xe888;" horiz-adv-x="785" 
d="M782 235q-24 -62 -58 -96.5t-71.5 -49.5t-76 -15t-71.5 8t-58 19t-36 18l-10 6q-32 -64 -72.5 -114.5t-88.5 -86t-102.5 -54.5t-112.5 -19q-12 0 -18 8t-6 17t6 17t18 8q97 0 180 59.5t140 163.5q-32 -12 -74.5 -19t-88.5 6.5t-89.5 54.5t-76.5 125q64 27 120 32t93 -4
q38 -9 70 -31q33 -22 49 -43t32 -46q29 76 44 162q-6 0 -10 -1q-6 -1 -26 -2t-39 1l-46 5q-30 3 -61 15.5t-57 35.5t-44 59t-22 87q54 22 97 22.5t76 -12.5t56.5 -35t40 -45.5t26 -45t13.5 -31.5l2 -9q6 67 6 109l-12 8q-4 2 -10.5 8.5l-16.5 16.5q-19 20 -34 40t-31 52
q-22 45 -19 98t46 113q63 -21 98 -54.5t49 -70.5t12.5 -74t-10.5 -65l-11 -35q-5 -16 -9 -23l-4 -9v-68l5 10q2 4 17 24q14 18 29 33t39 31q35 23 81.5 31t106.5 -12q-1 -45 -12 -79t-28 -58t-39 -40t-45 -25l-48 -14q-23 -7 -44 -5q-19 2 -38 1t-26 2l-9 2q-7 -42 -17 -81
t-24 -77q3 4 10 10l28 23q21 17 43 29.5t55 23.5q47 17 101.5 8.5t112.5 -53.5z" />
    <glyph glyph-name="paypal" unicode="&#xe889;" horiz-adv-x="857" 
d="M848 490q5 -23 4.5 -51.5t-7.5 -62.5q-48 -248 -315 -248h-24q-14 0 -25 -9t-13 -24l-3 -11l-31 -200q-2 -15 -13.5 -24t-25.5 -9h-140q-12 0 -18.5 8t-4.5 20l14 94q5 30 8.5 53.5t6.5 39.5q6 31 15 93q9 59 15 94q3 21 24 21h73q38 0 70.5 2t61.5 9q99 23 160 81
q57 52 87 137q7 20 11.5 38.5t7.5 35.5q2 10 7 3q43 -33 55 -90zM752 647q0 -59 -26 -132q-45 -131 -168 -176q-32 -12 -67.5 -17t-73.5 -6q0 -3 -50 -1l-51 1q-54 1 -65 -54q-2 -5 -48 -294q0 -6 -7 -6h-164q-12 0 -20.5 9t-6.5 22l130 820q2 16 15 26.5t29 10.5h333
q21 0 55 -7q37 -8 62 -18q60 -23 91 -69t32 -109z" />
    <glyph glyph-name="qq" unicode="&#xe88a;" 
d="M151 400q-5 12 -5 29q0 11 6 28t14 25q-1 12 4 29t13 24q0 78 51 161q51 82 122 117q75 37 180 37q73 0 149 -31q82 -35 120 -96q13 -21 24 -41t18 -47t14 -50t12 -55l1 -2q31 -46 31 -84q0 -8 -5 -23t-5 -21v-2q0 -2 2 -2t1 -2q43 -64 68 -120t24 -116q0 -23 -11 -56
q-10 -30 -31 -32q-9 0 -18.5 11.5t-18 25t-13.5 24t-5 7.5l-3 -2q-33 -86 -74 -125q10 -9 25 -15.5t29.5 -15t25.5 -20t13 -29.5q-1 -2 -2 -9t-4 -10q-36 -54 -169 -54q-14 0 -29.5 1.5t-31.5 3.5q-32 5 -55 11t-58 17l-13 4l-26 3q-18 1 -22 0q-22 -25 -71 -36
q-50 -11 -94 -11q-20 0 -39 1t-52 5q-17 2 -31 4.5t-25 6.5q-23 7 -41.5 23t-18.5 35q0 12 1.5 19.5t4.5 13.5t8.5 12.5t14.5 15.5q6 1 22 6.5t28 6.5l8 1q1 1 1 2l-1 2q-27 6 -60 58q-34 54 -41 88l-3 2q-3 0 -7 -12q-10 -23 -30 -41t-43 -21h-1q-2 0 -3 2t-3 3
q-13 30 -13 56q0 153 141 260z" />
    <glyph glyph-name="reddit" unicode="&#xe88b;" 
d="M611 199q9 -9 0 -17q-35 -35 -111 -35t-111 35q-9 8 0 17q8 8 17 0q27 -28 94 -28t94 28q4 3 9 3t8 -3zM440 300q0 -21 -15 -35t-35 -15t-35 15t-15 36t15 35t35 14t35 -15t15 -35zM660 300q0 -21 -15 -35t-35 -15t-35 15t-15 35t15 35t35 15t35 -14t15 -36zM800 367
q0 28 -19 47q-19 20 -48 19t-48 -20q-72 49 -173 54l35 158l112 -26q-1 -16 7.5 -28t22 -17t28.5 -3t27 14t13.5 26.5t-4 27.5t-17.5 22t-28 9q-30 2 -44 -28l-124 28q-10 3 -14 -9l-38 -174q-101 -5 -173 -54q-14 16 -34.5 19t-39 -4.5t-31 -23.5t-10.5 -37q0 -43 38 -60
q-4 -15 -4 -32q0 -80 79 -135q80 -56 188 -57q110 0 188 57t78 135q0 20 -4 32q17 8 27 24t10 36zM1000 350q0 -103 -40 -194t-106 -159q-33 -34 -73.5 -60.5t-86.5 -45.5t-95 -29t-99 -11q-101 -2 -194 40q-95 42 -160 106q-65 62 -106 159q-40 95 -40 194t40 194
q40 96 106 160q65 64 160 106q93 42 194 40q50 -1 99 -11t95 -29t86.5 -45.5t73.5 -60.5q66 -69 106 -160t40 -194z" />
    <glyph glyph-name="renren" unicode="&#xe88c;" horiz-adv-x="857" 
d="M632 -25q-95 -53 -205 -53q-108 0 -205 53q78 48 132.5 117.5t72.5 148.5q19 -81 74 -149.5t131 -116.5zM356 500q0 -140 -71 -256q-70 -115 -184 -171q-99 119 -101 276q0 78 27.5 149.5t76 128t113.5 94.5t139 50v-271zM857 349q-2 -157 -101 -276q-113 55 -184 171
t-71 256v271q75 -12 140.5 -50t113.5 -94.5t75.5 -128t26.5 -149.5z" />
    <glyph glyph-name="skype" unicode="&#xe88d;" horiz-adv-x="857" 
d="M655 257q0 28 -10.5 51.5t-27.5 37.5q-28 25 -63 37.5t-73 21.5l-83 20q-21 5 -35 15t-14 28q1 43 80 43q24 0 43 -6t30 -16l21 -19q10 -9 23 -16t27 -7q26 0 42 18t16 43q0 23 -18.5 42.5t-48.5 33.5t-68 22t-77 8q-38 0 -75 -8.5t-66.5 -27t-48 -48t-19.5 -71.5
q-2 -70 42 -102q22 -16 44.5 -26t57.5 -19l81 -20q50 -12 63 -20q15 -8 17.5 -23.5t-6.5 -29.5t-28 -24t-46 -7q-29 0 -51 9t-37 22q-10 9 -19 18.5t-18.5 17.5t-20 13.5t-23.5 5.5q-28 0 -42 -17t-14 -41q0 -52 68 -88q69 -37 162 -37q40 0 78.5 9.5t69 30t49 52t18.5 74.5
zM857 136q0 -90 -63 -151q-63 -63 -151 -63q-73 0 -131 45q-44 -9 -83 -9q-82 0 -153.5 30.5t-125 84t-84 125t-30.5 152.5q0 40 9 84q-45 58 -45 130q0 89 63 152t151 63q72 0 131 -45q43 9 84 9q81 0 152.5 -31t125 -84t84.5 -125t30 -153q0 -38 -8 -84q44 -59 44 -130z
" />
    <glyph glyph-name="slack" unicode="&#xe88e;" horiz-adv-x="928" 
d="M848 417q34 0 57 -23t24 -56q0 -55 -52 -73l-96 -33l31 -93q4 -11 4 -26q0 -17 -6.5 -31.5t-17.5 -25.5t-25.5 -17.5t-30.5 -6.5q-26 0 -47.5 15.5t-29.5 39.5l-31 92l-173 -59l31 -91q4 -12 4 -27q0 -16 -6 -30.5t-17 -25.5t-25.5 -17.5t-31.5 -6.5q-27 0 -47.5 15
t-29.5 41l-31 90l-85 -30q-8 -3 -15.5 -4t-12.5 -1q-34 0 -57 22t-23 57q0 26 16 47.5t40 29.5l87 29l-59 175l-87 -30q-15 -5 -27 -5q-33 0 -56 23t-23 56q0 26 15.5 47.5t39.5 29.5l88 30l-30 88q-4 12 -4 27q0 33 23 57t57 24q26 0 47.5 -16.5t29.5 -39.5l30 -89l173 59
l-30 89q-4 12 -4 26q0 33 23 57t57 24q26 0 48 -15t30 -40l29 -90l91 31q10 3 24 3q33 0 57 -22t24 -55q0 -25 -17 -45.5t-41 -28.5l-88 -30l59 -177l91 32q12 4 26 4zM405 271l173 58l-59 176l-173 -60z" />
    </font>
</defs>
</svg>
